<svg width="1920" height="2276" viewBox="0 0 1920 2276" fill="none" xmlns="http://www.w3.org/2000/svg">
<g opacity="0.2" filter="url(#filter0_f_301_374)">
<path d="M1074.11 1382.16C1158.43 1340.8 1233.91 1249.42 1198.98 1168.95C1209.09 1153.57 1196.83 1141.01 1181.8 1130.61C1154.58 1111.78 1168.71 1133.4 1174.41 1145.2C1180.18 1157.17 1143.74 1137.81 1138.49 1135.26L1092.02 1112.7C1023.53 1079.44 945.746 1043.79 902.032 988.121C874.506 953.069 842.967 929.43 798.88 908.021C772.065 895 741.063 884.91 711.06 878.36C671.113 869.64 652.485 873.776 615.906 894.48C590.61 908.798 562.723 908.14 535.619 917.53C511.762 925.796 490.098 933.716 462.733 932.922C416.381 931.576 367.615 881.842 340.801 856.976C291.278 811.048 252.786 748.63 236.177 688.153C227.296 655.818 225.669 634.401 201.036 607.608C183.911 588.981 171.349 572.128 146.415 560.02C61.7291 518.896 -11.9873 538.94 -92.6553 585.893C-177.304 635.163 -246.993 699.746 -329.409 751.394C-361.335 771.401 -396.955 777.729 -429.285 794.653C-443.485 802.086 -386.084 786.486 -379.321 799.294C-368.113 820.52 -387.508 866.654 -400.532 885.37C-410.765 900.075 -409.947 916.77 -411.923 933.508C-413.625 947.926 -425.73 985.427 -414.169 998.784C-408.949 1004.81 -400.642 1004.18 -393.894 1001.42C-377.097 994.529 -344.228 1017.74 -330.462 1024.43C-298.068 1040.16 -319.09 1101.73 -328.388 1124.7C-344.093 1163.48 -359.383 1194.66 -355.012 1236.42C-351.484 1270.13 -346.738 1305.68 -332.129 1337.56C-318.511 1367.28 -275.05 1396.95 -246.262 1416.19C-189.742 1453.96 -130.011 1485.34 -67.4958 1515.7L165.894 1629.03C204.67 1647.86 243.769 1670.7 289.193 1676.21C358.587 1684.62 436.533 1678.69 505.691 1672.85C598.953 1664.97 685.69 1642.58 770.791 1610.56C794.706 1601.56 809.196 1596.06 821.461 1577.45C832.546 1560.64 823.575 1552.7 819.236 1535.98C812.949 1511.74 819.542 1480.14 819.434 1455.28C819.304 1425.72 828.267 1416.79 861.865 1407.21C927.174 1388.59 1014.6 1411.36 1074.11 1382.16Z" fill="#0500FF"/>
</g>
<g filter="url(#filter1_f_301_374)">
<path d="M1600 575.283C795.933 887.378 1865.56 1583.12 1481.72 1866C961.872 1866 540.455 1604 540.455 1280.8C540.455 957.608 -464.595 502.507 55.2498 502.507C575.094 502.507 1600 252.087 1600 575.283Z" fill="#D2EDF5"/>
</g>
<g opacity="0.2" filter="url(#filter2_f_301_374)">
<path d="M2235.55 724.501C2186.65 692.305 2203.74 690.705 2149.36 667.747C2133.7 657.435 2117.79 648.263 2105.37 634.036C2099.23 626.999 2093.58 621.521 2085.7 616.332L1979.37 546.32C1950.4 527.245 1921.65 507.798 1892.44 489.082C1868.68 473.849 1840.42 469.97 1813.05 465.307C1768.07 457.643 1723.22 457.846 1677.81 455.249C1604.62 451.064 1542.99 460.48 1481.66 501.857C1464.66 513.33 1448.27 525.9 1430.79 536.62C1411.54 548.419 1398.2 563.631 1380.68 577.167C1343.48 605.907 1300.41 627.651 1267.85 661.916C1248.17 682.623 1231.73 704.471 1215.98 728.396C1187.36 771.858 1158.44 814.289 1137.44 862.114C1106.42 932.759 1070.66 1006.1 1090.33 1085.49C1103.98 1140.64 1139.73 1177.84 1185.26 1207.82C1200.15 1217.63 1217.17 1233.52 1234.13 1239.47C1245.6 1243.5 1262.42 1241.97 1274.72 1243.85C1305 1248.49 1333.58 1247.29 1362.09 1258.98C1388.97 1270 1414.09 1281.37 1437.91 1298.35C1449.25 1306.43 1454.89 1318.78 1465.03 1327.99C1504.72 1364.06 1539.97 1411.29 1542.82 1466.48C1545.02 1509.18 1545.84 1553.91 1542.37 1596.55C1538.54 1643.42 1547.03 1686.83 1551.57 1733.33C1553.52 1753.23 1559.19 1786.55 1577.32 1798.48C1593.51 1809.14 1611.29 1825.8 1630.9 1828.31C1664.51 1832.62 1692.94 1822.23 1723.08 1808.61C1750.62 1796.16 1780.32 1784.43 1799.93 1760.33C1810.97 1746.76 1817.07 1726.38 1823.36 1710.31C1831.23 1690.17 1839.59 1670.37 1847.71 1650.34C1864.8 1608.13 1899.74 1567.18 1933.39 1537.86C1951.67 1521.93 1973.13 1510.24 1991.63 1494.58C2021.14 1469.61 2051.75 1445.86 2081.41 1421.04C2126.46 1383.36 2161.94 1346.32 2194.1 1297.49L2278.14 1169.86C2300.96 1135.19 2320.83 1102.61 2335.44 1063.85C2346.43 1034.7 2355.52 1006.95 2363.75 976.753C2373.39 941.388 2386.5 901.246 2375.97 864.636C2369.01 840.468 2351.3 818.633 2334.17 800.873C2315.87 781.901 2299.39 766.534 2277.29 751.988L2235.55 724.501Z" fill="#1A00BA"/>
</g>
<defs>
<filter id="filter0_f_301_374" x="-631.535" y="337.754" width="2039.26" height="1542.64" filterUnits="userSpaceOnUse" color-interpolation-filters="sRGB">
<feFlood flood-opacity="0" result="BackgroundImageFix"/>
<feBlend mode="normal" in="SourceGraphic" in2="BackgroundImageFix" result="shape"/>
<feGaussianBlur stdDeviation="100" result="effect1_foregroundBlur_301_374"/>
</filter>
<filter id="filter1_f_301_374" x="-504" y="0" width="2514" height="2276" filterUnits="userSpaceOnUse" color-interpolation-filters="sRGB">
<feFlood flood-opacity="0" result="BackgroundImageFix"/>
<feBlend mode="normal" in="SourceGraphic" in2="BackgroundImageFix" result="shape"/>
<feGaussianBlur stdDeviation="205" result="effect1_foregroundBlur_301_374"/>
</filter>
<filter id="filter2_f_301_374" x="884.697" y="254.341" width="1695.17" height="1774.96" filterUnits="userSpaceOnUse" color-interpolation-filters="sRGB">
<feFlood flood-opacity="0" result="BackgroundImageFix"/>
<feBlend mode="normal" in="SourceGraphic" in2="BackgroundImageFix" result="shape"/>
<feGaussianBlur stdDeviation="100" result="effect1_foregroundBlur_301_374"/>
</filter>
</defs>
</svg>
