<svg width="400" height="500" viewBox="0 0 400 500" fill="none" xmlns="http://www.w3.org/2000/svg">
<g opacity="0.7" clip-path="url(#clip0_236_385)">
<rect width="400" height="500" fill="url(#paint0_linear_236_385)"/>
<g opacity="0.9" filter="url(#filter0_f_236_385)">
<ellipse cx="150.5" cy="152" rx="219.5" ry="210" fill="#3671E9"/>
</g>
<g opacity="0.4" filter="url(#filter1_f_236_385)">
<ellipse cx="363.5" cy="33.5" rx="138.5" ry="133.5" fill="#76C1F8"/>
</g>
<g opacity="0.3" filter="url(#filter2_f_236_385)">
<ellipse cx="301.5" cy="490" rx="121.5" ry="90" fill="#3671E9"/>
</g>
<circle cx="14.9655" cy="5.96552" r="5.96552" fill="#11C0AB" fill-opacity="0.2"/>
<circle cx="134.276" cy="5.96552" r="5.96552" fill="#11C0AB" fill-opacity="0.2"/>
<circle cx="134.276" cy="125.276" r="5.96552" fill="#11C0AB" fill-opacity="0.2"/>
<circle cx="134.276" cy="244.586" r="5.96552" fill="#11C0AB" fill-opacity="0.2"/>
<circle cx="14.9655" cy="125.276" r="5.96552" fill="#11C0AB" fill-opacity="0.2"/>
<circle cx="14.9655" cy="244.586" r="5.96552" fill="#11C0AB" fill-opacity="0.2"/>
<circle cx="253.587" cy="125.276" r="5.96552" fill="#11C0AB" fill-opacity="0.2"/>
<circle cx="372.896" cy="125.276" r="5.96552" fill="#11C0AB" fill-opacity="0.2"/>
<circle cx="253.587" cy="244.586" r="5.96552" fill="#11C0AB" fill-opacity="0.2"/>
<circle cx="372.896" cy="244.586" r="5.96552" fill="#11C0AB" fill-opacity="0.2"/>
<circle cx="253.587" cy="5.96552" r="5.96552" fill="#11C0AB" fill-opacity="0.2"/>
<circle cx="372.896" cy="5.96552" r="5.96552" fill="#11C0AB" fill-opacity="0.2"/>
<circle cx="14.9655" cy="29.8278" r="5.96552" fill="#11C0AB" fill-opacity="0.2"/>
<circle cx="134.276" cy="29.8278" r="5.96552" fill="#11C0AB" fill-opacity="0.2"/>
<circle cx="134.276" cy="149.138" r="5.96552" fill="#11C0AB" fill-opacity="0.2"/>
<circle cx="134.276" cy="268.448" r="5.96552" fill="#11C0AB" fill-opacity="0.2"/>
<circle cx="14.9655" cy="149.138" r="5.96552" fill="#11C0AB" fill-opacity="0.2"/>
<circle cx="14.9655" cy="268.448" r="5.96552" fill="#11C0AB" fill-opacity="0.2"/>
<circle cx="253.587" cy="149.138" r="5.96552" fill="#11C0AB" fill-opacity="0.2"/>
<circle cx="372.896" cy="149.138" r="5.96552" fill="#11C0AB" fill-opacity="0.2"/>
<circle cx="253.587" cy="268.448" r="5.96552" fill="#11C0AB" fill-opacity="0.2"/>
<circle cx="372.896" cy="268.448" r="5.96552" fill="#11C0AB" fill-opacity="0.2"/>
<circle cx="253.587" cy="29.8278" r="5.96552" fill="#11C0AB" fill-opacity="0.2"/>
<circle cx="372.896" cy="29.8278" r="5.96552" fill="#11C0AB" fill-opacity="0.2"/>
<circle cx="14.9655" cy="53.6896" r="5.96552" fill="#11C0AB" fill-opacity="0.2"/>
<circle cx="134.276" cy="53.6896" r="5.96552" fill="#11C0AB" fill-opacity="0.2"/>
<circle cx="134.276" cy="173" r="5.96552" fill="#11C0AB" fill-opacity="0.2"/>
<circle cx="134.276" cy="292.31" r="5.96552" fill="#11C0AB" fill-opacity="0.2"/>
<circle cx="14.9655" cy="173" r="5.96552" fill="#11C0AB" fill-opacity="0.2"/>
<circle cx="14.9655" cy="292.31" r="5.96552" fill="#11C0AB" fill-opacity="0.2"/>
<circle cx="253.587" cy="173" r="5.96552" fill="#11C0AB" fill-opacity="0.2"/>
<circle cx="372.896" cy="173" r="5.96552" fill="#11C0AB" fill-opacity="0.2"/>
<circle cx="253.587" cy="292.31" r="5.96552" fill="#11C0AB" fill-opacity="0.2"/>
<circle cx="372.896" cy="292.31" r="5.96552" fill="#11C0AB" fill-opacity="0.2"/>
<circle cx="253.587" cy="53.6896" r="5.96552" fill="#11C0AB" fill-opacity="0.2"/>
<circle cx="372.896" cy="53.6896" r="5.96552" fill="#11C0AB" fill-opacity="0.2"/>
<circle cx="14.9655" cy="77.5519" r="5.96552" fill="#11C0AB" fill-opacity="0.2"/>
<circle cx="134.276" cy="77.5519" r="5.96552" fill="#11C0AB" fill-opacity="0.2"/>
<circle cx="134.276" cy="196.862" r="5.96552" fill="#11C0AB" fill-opacity="0.2"/>
<circle cx="134.276" cy="316.173" r="5.96552" fill="#11C0AB" fill-opacity="0.2"/>
<circle cx="14.9655" cy="196.862" r="5.96552" fill="#11C0AB" fill-opacity="0.2"/>
<circle cx="14.9655" cy="316.173" r="5.96552" fill="#11C0AB" fill-opacity="0.2"/>
<circle cx="253.587" cy="196.862" r="5.96552" fill="#11C0AB" fill-opacity="0.2"/>
<circle cx="372.896" cy="196.862" r="5.96552" fill="#11C0AB" fill-opacity="0.2"/>
<circle cx="253.587" cy="316.173" r="5.96552" fill="#11C0AB" fill-opacity="0.2"/>
<circle cx="372.896" cy="316.173" r="5.96552" fill="#11C0AB" fill-opacity="0.2"/>
<circle cx="253.587" cy="77.5519" r="5.96552" fill="#11C0AB" fill-opacity="0.2"/>
<circle cx="372.896" cy="77.5519" r="5.96552" fill="#11C0AB" fill-opacity="0.2"/>
<circle cx="14.9655" cy="101.414" r="5.96552" fill="#11C0AB" fill-opacity="0.2"/>
<circle cx="134.276" cy="101.414" r="5.96552" fill="#11C0AB" fill-opacity="0.2"/>
<circle cx="134.276" cy="220.724" r="5.96552" fill="#11C0AB" fill-opacity="0.2"/>
<circle cx="134.276" cy="340.034" r="5.96552" fill="#11C0AB" fill-opacity="0.2"/>
<circle cx="14.9655" cy="220.724" r="5.96552" fill="#11C0AB" fill-opacity="0.2"/>
<circle cx="14.9655" cy="340.034" r="5.96552" fill="#11C0AB" fill-opacity="0.2"/>
<circle cx="253.587" cy="220.724" r="5.96552" fill="#11C0AB" fill-opacity="0.2"/>
<circle cx="372.896" cy="220.724" r="5.96552" fill="#11C0AB" fill-opacity="0.2"/>
<circle cx="253.587" cy="340.034" r="5.96552" fill="#11C0AB" fill-opacity="0.2"/>
<circle cx="372.896" cy="340.034" r="5.96552" fill="#11C0AB" fill-opacity="0.2"/>
<circle cx="253.587" cy="101.414" r="5.96552" fill="#11C0AB" fill-opacity="0.2"/>
<circle cx="372.896" cy="101.414" r="5.96552" fill="#11C0AB" fill-opacity="0.2"/>
<circle cx="62.6901" cy="5.96552" r="5.96552" fill="#11C0AB" fill-opacity="0.2"/>
<circle cx="182" cy="5.96552" r="5.96552" fill="#11C0AB" fill-opacity="0.2"/>
<circle cx="182" cy="125.276" r="5.96552" fill="#11C0AB" fill-opacity="0.2"/>
<circle cx="182" cy="244.586" r="5.96552" fill="#11C0AB" fill-opacity="0.2"/>
<circle cx="62.6901" cy="125.276" r="5.96552" fill="#11C0AB" fill-opacity="0.2"/>
<circle cx="62.6901" cy="244.586" r="5.96552" fill="#11C0AB" fill-opacity="0.2"/>
<circle cx="301.31" cy="125.276" r="5.96552" fill="#11C0AB" fill-opacity="0.2"/>
<circle cx="301.31" cy="244.586" r="5.96552" fill="#11C0AB" fill-opacity="0.2"/>
<circle cx="301.31" cy="5.96552" r="5.96552" fill="#11C0AB" fill-opacity="0.2"/>
<circle cx="62.6901" cy="29.8278" r="5.96552" fill="#11C0AB" fill-opacity="0.2"/>
<circle cx="182" cy="29.8278" r="5.96552" fill="#11C0AB" fill-opacity="0.2"/>
<circle cx="182" cy="149.138" r="5.96552" fill="#11C0AB" fill-opacity="0.2"/>
<circle cx="182" cy="268.448" r="5.96552" fill="#11C0AB" fill-opacity="0.2"/>
<circle cx="62.6901" cy="149.138" r="5.96552" fill="#11C0AB" fill-opacity="0.2"/>
<circle cx="62.6901" cy="268.448" r="5.96552" fill="#11C0AB" fill-opacity="0.2"/>
<circle cx="301.31" cy="149.138" r="5.96552" fill="#11C0AB" fill-opacity="0.2"/>
<circle cx="301.31" cy="268.448" r="5.96552" fill="#11C0AB" fill-opacity="0.2"/>
<circle cx="301.31" cy="29.8278" r="5.96552" fill="#11C0AB" fill-opacity="0.2"/>
<circle cx="62.6901" cy="53.6896" r="5.96552" fill="#11C0AB" fill-opacity="0.2"/>
<circle cx="182" cy="53.6896" r="5.96552" fill="#11C0AB" fill-opacity="0.2"/>
<circle cx="182" cy="173" r="5.96552" fill="#11C0AB" fill-opacity="0.2"/>
<circle cx="182" cy="292.31" r="5.96552" fill="#11C0AB" fill-opacity="0.2"/>
<circle cx="62.6901" cy="173" r="5.96552" fill="#11C0AB" fill-opacity="0.2"/>
<circle cx="62.6901" cy="292.31" r="5.96552" fill="#11C0AB" fill-opacity="0.2"/>
<circle cx="301.31" cy="173" r="5.96552" fill="#11C0AB" fill-opacity="0.2"/>
<circle cx="301.31" cy="292.31" r="5.96552" fill="#11C0AB" fill-opacity="0.2"/>
<circle cx="301.31" cy="53.6896" r="5.96552" fill="#11C0AB" fill-opacity="0.2"/>
<circle cx="62.6901" cy="77.5519" r="5.96552" fill="#11C0AB" fill-opacity="0.2"/>
<circle cx="182" cy="77.5519" r="5.96552" fill="#11C0AB" fill-opacity="0.2"/>
<circle cx="182" cy="196.862" r="5.96552" fill="#11C0AB" fill-opacity="0.2"/>
<circle cx="182" cy="316.173" r="5.96552" fill="#11C0AB" fill-opacity="0.2"/>
<circle cx="62.6901" cy="196.862" r="5.96552" fill="#11C0AB" fill-opacity="0.2"/>
<circle cx="62.6901" cy="316.173" r="5.96552" fill="#11C0AB" fill-opacity="0.2"/>
<circle cx="301.31" cy="196.862" r="5.96552" fill="#11C0AB" fill-opacity="0.2"/>
<circle cx="301.31" cy="316.173" r="5.96552" fill="#11C0AB" fill-opacity="0.2"/>
<circle cx="301.31" cy="77.5519" r="5.96552" fill="#11C0AB" fill-opacity="0.2"/>
<circle cx="62.6901" cy="101.414" r="5.96552" fill="#11C0AB" fill-opacity="0.2"/>
<circle cx="182" cy="101.414" r="5.96552" fill="#11C0AB" fill-opacity="0.2"/>
<circle cx="182" cy="220.724" r="5.96552" fill="#11C0AB" fill-opacity="0.2"/>
<circle cx="182" cy="340.034" r="5.96552" fill="#11C0AB" fill-opacity="0.2"/>
<circle cx="62.6901" cy="220.724" r="5.96552" fill="#11C0AB" fill-opacity="0.2"/>
<circle cx="62.6901" cy="340.034" r="5.96552" fill="#11C0AB" fill-opacity="0.2"/>
<circle cx="301.31" cy="220.724" r="5.96552" fill="#11C0AB" fill-opacity="0.2"/>
<circle cx="301.31" cy="340.034" r="5.96552" fill="#11C0AB" fill-opacity="0.2"/>
<circle cx="301.31" cy="101.414" r="5.96552" fill="#11C0AB" fill-opacity="0.2"/>
<circle cx="110.414" cy="5.96552" r="5.96552" fill="#11C0AB" fill-opacity="0.2"/>
<circle cx="229.724" cy="5.96552" r="5.96552" fill="#11C0AB" fill-opacity="0.2"/>
<circle cx="229.724" cy="125.276" r="5.96552" fill="#11C0AB" fill-opacity="0.2"/>
<circle cx="229.724" cy="244.586" r="5.96552" fill="#11C0AB" fill-opacity="0.2"/>
<circle cx="110.414" cy="125.276" r="5.96552" fill="#11C0AB" fill-opacity="0.2"/>
<circle cx="110.414" cy="244.586" r="5.96552" fill="#11C0AB" fill-opacity="0.2"/>
<circle cx="349.035" cy="125.276" r="5.96552" fill="#11C0AB" fill-opacity="0.2"/>
<circle cx="349.035" cy="244.586" r="5.96552" fill="#11C0AB" fill-opacity="0.2"/>
<circle cx="349.035" cy="5.96552" r="5.96552" fill="#11C0AB" fill-opacity="0.2"/>
<circle cx="110.414" cy="29.8278" r="5.96552" fill="#11C0AB" fill-opacity="0.2"/>
<circle cx="229.724" cy="29.8278" r="5.96552" fill="#11C0AB" fill-opacity="0.2"/>
<circle cx="229.724" cy="149.138" r="5.96552" fill="#11C0AB" fill-opacity="0.2"/>
<circle cx="229.724" cy="268.448" r="5.96552" fill="#11C0AB" fill-opacity="0.2"/>
<circle cx="110.414" cy="149.138" r="5.96552" fill="#11C0AB" fill-opacity="0.2"/>
<circle cx="110.414" cy="268.448" r="5.96552" fill="#11C0AB" fill-opacity="0.2"/>
<circle cx="349.035" cy="149.138" r="5.96552" fill="#11C0AB" fill-opacity="0.2"/>
<circle cx="349.035" cy="268.448" r="5.96552" fill="#11C0AB" fill-opacity="0.2"/>
<circle cx="349.035" cy="29.8278" r="5.96552" fill="#11C0AB" fill-opacity="0.2"/>
<circle cx="110.414" cy="53.6896" r="5.96552" fill="#11C0AB" fill-opacity="0.2"/>
<circle cx="229.724" cy="53.6896" r="5.96552" fill="#11C0AB" fill-opacity="0.2"/>
<circle cx="229.724" cy="173" r="5.96552" fill="#11C0AB" fill-opacity="0.2"/>
<circle cx="229.724" cy="292.31" r="5.96552" fill="#11C0AB" fill-opacity="0.2"/>
<circle cx="110.414" cy="173" r="5.96552" fill="#11C0AB" fill-opacity="0.2"/>
<circle cx="110.414" cy="292.31" r="5.96552" fill="#11C0AB" fill-opacity="0.2"/>
<circle cx="349.035" cy="173" r="5.96552" fill="#11C0AB" fill-opacity="0.2"/>
<circle cx="349.035" cy="292.31" r="5.96552" fill="#11C0AB" fill-opacity="0.2"/>
<circle cx="349.035" cy="53.6896" r="5.96552" fill="#11C0AB" fill-opacity="0.2"/>
<circle cx="110.414" cy="77.5519" r="5.96552" fill="#11C0AB" fill-opacity="0.2"/>
<circle cx="229.724" cy="77.5519" r="5.96552" fill="#11C0AB" fill-opacity="0.2"/>
<circle cx="229.724" cy="196.862" r="5.96552" fill="#11C0AB" fill-opacity="0.2"/>
<circle cx="229.724" cy="316.173" r="5.96552" fill="#11C0AB" fill-opacity="0.2"/>
<circle cx="110.414" cy="196.862" r="5.96552" fill="#11C0AB" fill-opacity="0.2"/>
<circle cx="110.414" cy="316.173" r="5.96552" fill="#11C0AB" fill-opacity="0.2"/>
<circle cx="349.035" cy="196.862" r="5.96552" fill="#11C0AB" fill-opacity="0.2"/>
<circle cx="349.035" cy="316.173" r="5.96552" fill="#11C0AB" fill-opacity="0.2"/>
<circle cx="349.035" cy="77.5519" r="5.96552" fill="#11C0AB" fill-opacity="0.2"/>
<circle cx="110.414" cy="101.414" r="5.96552" fill="#11C0AB" fill-opacity="0.2"/>
<circle cx="229.724" cy="101.414" r="5.96552" fill="#11C0AB" fill-opacity="0.2"/>
<circle cx="229.724" cy="220.724" r="5.96552" fill="#11C0AB" fill-opacity="0.2"/>
<circle cx="229.724" cy="340.034" r="5.96552" fill="#11C0AB" fill-opacity="0.2"/>
<circle cx="110.414" cy="220.724" r="5.96552" fill="#11C0AB" fill-opacity="0.2"/>
<circle cx="110.414" cy="340.034" r="5.96552" fill="#11C0AB" fill-opacity="0.2"/>
<circle cx="349.035" cy="220.724" r="5.96552" fill="#11C0AB" fill-opacity="0.2"/>
<circle cx="349.035" cy="340.034" r="5.96552" fill="#11C0AB" fill-opacity="0.2"/>
<circle cx="349.035" cy="101.414" r="5.96552" fill="#11C0AB" fill-opacity="0.2"/>
<circle cx="38.8278" cy="5.96552" r="5.96552" fill="#11C0AB" fill-opacity="0.2"/>
<circle cx="158.138" cy="5.96552" r="5.96552" fill="#11C0AB" fill-opacity="0.2"/>
<circle cx="158.138" cy="125.276" r="5.96552" fill="#11C0AB" fill-opacity="0.2"/>
<circle cx="158.138" cy="244.586" r="5.96552" fill="#11C0AB" fill-opacity="0.2"/>
<circle cx="38.8278" cy="125.276" r="5.96552" fill="#11C0AB" fill-opacity="0.2"/>
<circle cx="38.8278" cy="244.586" r="5.96552" fill="#11C0AB" fill-opacity="0.2"/>
<circle cx="277.448" cy="125.276" r="5.96552" fill="#11C0AB" fill-opacity="0.2"/>
<circle cx="396.758" cy="125.276" r="5.96552" fill="#11C0AB" fill-opacity="0.2"/>
<circle cx="277.448" cy="244.586" r="5.96552" fill="#11C0AB" fill-opacity="0.2"/>
<circle cx="396.758" cy="244.586" r="5.96552" fill="#11C0AB" fill-opacity="0.2"/>
<circle cx="277.448" cy="5.96552" r="5.96552" fill="#11C0AB" fill-opacity="0.2"/>
<circle cx="396.758" cy="5.96552" r="5.96552" fill="#11C0AB" fill-opacity="0.2"/>
<circle cx="38.8278" cy="29.8278" r="5.96552" fill="#11C0AB" fill-opacity="0.2"/>
<circle cx="158.138" cy="29.8278" r="5.96552" fill="#11C0AB" fill-opacity="0.2"/>
<circle cx="158.138" cy="149.138" r="5.96552" fill="#11C0AB" fill-opacity="0.2"/>
<circle cx="158.138" cy="268.448" r="5.96552" fill="#11C0AB" fill-opacity="0.2"/>
<circle cx="38.8278" cy="149.138" r="5.96552" fill="#11C0AB" fill-opacity="0.2"/>
<circle cx="38.8278" cy="268.448" r="5.96552" fill="#11C0AB" fill-opacity="0.2"/>
<circle cx="277.448" cy="149.138" r="5.96552" fill="#11C0AB" fill-opacity="0.2"/>
<circle cx="396.758" cy="149.138" r="5.96552" fill="#11C0AB" fill-opacity="0.2"/>
<circle cx="277.448" cy="268.448" r="5.96552" fill="#11C0AB" fill-opacity="0.2"/>
<circle cx="396.758" cy="268.448" r="5.96552" fill="#11C0AB" fill-opacity="0.2"/>
<circle cx="277.448" cy="29.8278" r="5.96552" fill="#11C0AB" fill-opacity="0.2"/>
<circle cx="396.758" cy="29.8278" r="5.96552" fill="#11C0AB" fill-opacity="0.2"/>
<circle cx="38.8278" cy="53.6896" r="5.96552" fill="#11C0AB" fill-opacity="0.2"/>
<circle cx="158.138" cy="53.6896" r="5.96552" fill="#11C0AB" fill-opacity="0.2"/>
<circle cx="158.138" cy="173" r="5.96552" fill="#11C0AB" fill-opacity="0.2"/>
<circle cx="158.138" cy="292.31" r="5.96552" fill="#11C0AB" fill-opacity="0.2"/>
<circle cx="38.8278" cy="173" r="5.96552" fill="#11C0AB" fill-opacity="0.2"/>
<circle cx="38.8278" cy="292.31" r="5.96552" fill="#11C0AB" fill-opacity="0.2"/>
<circle cx="277.448" cy="173" r="5.96552" fill="#11C0AB" fill-opacity="0.2"/>
<circle cx="396.758" cy="173" r="5.96552" fill="#11C0AB" fill-opacity="0.2"/>
<circle cx="277.448" cy="292.31" r="5.96552" fill="#11C0AB" fill-opacity="0.2"/>
<circle cx="396.758" cy="292.31" r="5.96552" fill="#11C0AB" fill-opacity="0.2"/>
<circle cx="277.448" cy="53.6896" r="5.96552" fill="#11C0AB" fill-opacity="0.2"/>
<circle cx="396.758" cy="53.6896" r="5.96552" fill="#11C0AB" fill-opacity="0.2"/>
<circle cx="38.8278" cy="77.5519" r="5.96552" fill="#11C0AB" fill-opacity="0.2"/>
<circle cx="158.138" cy="77.5519" r="5.96552" fill="#11C0AB" fill-opacity="0.2"/>
<circle cx="158.138" cy="196.862" r="5.96552" fill="#11C0AB" fill-opacity="0.2"/>
<circle cx="158.138" cy="316.173" r="5.96552" fill="#11C0AB" fill-opacity="0.2"/>
<circle cx="38.8278" cy="196.862" r="5.96552" fill="#11C0AB" fill-opacity="0.2"/>
<circle cx="38.8278" cy="316.173" r="5.96552" fill="#11C0AB" fill-opacity="0.2"/>
<circle cx="277.448" cy="196.862" r="5.96552" fill="#11C0AB" fill-opacity="0.2"/>
<circle cx="396.758" cy="196.862" r="5.96552" fill="#11C0AB" fill-opacity="0.2"/>
<circle cx="277.448" cy="316.173" r="5.96552" fill="#11C0AB" fill-opacity="0.2"/>
<circle cx="396.758" cy="316.173" r="5.96552" fill="#11C0AB" fill-opacity="0.2"/>
<circle cx="277.448" cy="77.5519" r="5.96552" fill="#11C0AB" fill-opacity="0.2"/>
<circle cx="396.758" cy="77.5519" r="5.96552" fill="#11C0AB" fill-opacity="0.2"/>
<circle cx="38.8278" cy="101.414" r="5.96552" fill="#11C0AB" fill-opacity="0.2"/>
<circle cx="158.138" cy="101.414" r="5.96552" fill="#11C0AB" fill-opacity="0.2"/>
<circle cx="158.138" cy="220.724" r="5.96552" fill="#11C0AB" fill-opacity="0.2"/>
<circle cx="158.138" cy="340.034" r="5.96552" fill="#11C0AB" fill-opacity="0.2"/>
<circle cx="38.8278" cy="220.724" r="5.96552" fill="#11C0AB" fill-opacity="0.2"/>
<circle cx="38.8278" cy="340.034" r="5.96552" fill="#11C0AB" fill-opacity="0.2"/>
<circle cx="277.448" cy="220.724" r="5.96552" fill="#11C0AB" fill-opacity="0.2"/>
<circle cx="396.758" cy="220.724" r="5.96552" fill="#11C0AB" fill-opacity="0.2"/>
<circle cx="277.448" cy="340.034" r="5.96552" fill="#11C0AB" fill-opacity="0.2"/>
<circle cx="396.758" cy="340.034" r="5.96552" fill="#11C0AB" fill-opacity="0.2"/>
<circle cx="277.448" cy="101.414" r="5.96552" fill="#11C0AB" fill-opacity="0.2"/>
<circle cx="396.758" cy="101.414" r="5.96552" fill="#11C0AB" fill-opacity="0.2"/>
<circle cx="86.5515" cy="5.96552" r="5.96552" fill="#11C0AB" fill-opacity="0.2"/>
<circle cx="205.862" cy="5.96552" r="5.96552" fill="#11C0AB" fill-opacity="0.2"/>
<circle cx="205.862" cy="125.276" r="5.96552" fill="#11C0AB" fill-opacity="0.2"/>
<circle cx="205.862" cy="244.586" r="5.96552" fill="#11C0AB" fill-opacity="0.2"/>
<circle cx="86.5515" cy="125.276" r="5.96552" fill="#11C0AB" fill-opacity="0.2"/>
<circle cx="86.5515" cy="244.586" r="5.96552" fill="#11C0AB" fill-opacity="0.2"/>
<circle cx="325.173" cy="125.276" r="5.96552" fill="#11C0AB" fill-opacity="0.2"/>
<circle cx="325.173" cy="244.586" r="5.96552" fill="#11C0AB" fill-opacity="0.2"/>
<circle cx="325.173" cy="5.96552" r="5.96552" fill="#11C0AB" fill-opacity="0.2"/>
<circle cx="86.5515" cy="29.8278" r="5.96552" fill="#11C0AB" fill-opacity="0.2"/>
<circle cx="205.862" cy="29.8278" r="5.96552" fill="#11C0AB" fill-opacity="0.2"/>
<circle cx="205.862" cy="149.138" r="5.96552" fill="#11C0AB" fill-opacity="0.2"/>
<circle cx="205.862" cy="268.448" r="5.96552" fill="#11C0AB" fill-opacity="0.2"/>
<circle cx="86.5515" cy="149.138" r="5.96552" fill="#11C0AB" fill-opacity="0.2"/>
<circle cx="86.5515" cy="268.448" r="5.96552" fill="#11C0AB" fill-opacity="0.2"/>
<circle cx="325.173" cy="149.138" r="5.96552" fill="#11C0AB" fill-opacity="0.2"/>
<circle cx="325.173" cy="268.448" r="5.96552" fill="#11C0AB" fill-opacity="0.2"/>
<circle cx="325.173" cy="29.8278" r="5.96552" fill="#11C0AB" fill-opacity="0.2"/>
<circle cx="86.5515" cy="53.6896" r="5.96552" fill="#11C0AB" fill-opacity="0.2"/>
<circle cx="205.862" cy="53.6896" r="5.96552" fill="#11C0AB" fill-opacity="0.2"/>
<circle cx="205.862" cy="173" r="5.96552" fill="#11C0AB" fill-opacity="0.2"/>
<circle cx="205.862" cy="292.31" r="5.96552" fill="#11C0AB" fill-opacity="0.2"/>
<circle cx="86.5515" cy="173" r="5.96552" fill="#11C0AB" fill-opacity="0.2"/>
<circle cx="86.5515" cy="292.31" r="5.96552" fill="#11C0AB" fill-opacity="0.2"/>
<circle cx="325.173" cy="173" r="5.96552" fill="#11C0AB" fill-opacity="0.2"/>
<circle cx="325.173" cy="292.31" r="5.96552" fill="#11C0AB" fill-opacity="0.2"/>
<circle cx="325.173" cy="53.6896" r="5.96552" fill="#11C0AB" fill-opacity="0.2"/>
<circle cx="86.5515" cy="77.5519" r="5.96552" fill="#11C0AB" fill-opacity="0.2"/>
<circle cx="205.862" cy="77.5519" r="5.96552" fill="#11C0AB" fill-opacity="0.2"/>
<circle cx="205.862" cy="196.862" r="5.96552" fill="#11C0AB" fill-opacity="0.2"/>
<circle cx="205.862" cy="316.173" r="5.96552" fill="#11C0AB" fill-opacity="0.2"/>
<circle cx="86.5515" cy="196.862" r="5.96552" fill="#11C0AB" fill-opacity="0.2"/>
<circle cx="86.5515" cy="316.173" r="5.96552" fill="#11C0AB" fill-opacity="0.2"/>
<circle cx="325.173" cy="196.862" r="5.96552" fill="#11C0AB" fill-opacity="0.2"/>
<circle cx="325.173" cy="316.173" r="5.96552" fill="#11C0AB" fill-opacity="0.2"/>
<circle cx="325.173" cy="77.5519" r="5.96552" fill="#11C0AB" fill-opacity="0.2"/>
<circle cx="86.5515" cy="101.414" r="5.96552" fill="#11C0AB" fill-opacity="0.2"/>
<circle cx="205.862" cy="101.414" r="5.96552" fill="#11C0AB" fill-opacity="0.2"/>
<circle cx="205.862" cy="220.724" r="5.96552" fill="#11C0AB" fill-opacity="0.2"/>
<circle cx="205.862" cy="340.034" r="5.96552" fill="#11C0AB" fill-opacity="0.2"/>
<circle cx="86.5515" cy="220.724" r="5.96552" fill="#11C0AB" fill-opacity="0.2"/>
<circle cx="86.5515" cy="340.034" r="5.96552" fill="#11C0AB" fill-opacity="0.2"/>
<circle cx="325.173" cy="220.724" r="5.96552" fill="#11C0AB" fill-opacity="0.2"/>
<circle cx="325.173" cy="340.034" r="5.96552" fill="#11C0AB" fill-opacity="0.2"/>
<circle cx="325.173" cy="101.414" r="5.96552" fill="#11C0AB" fill-opacity="0.2"/>
<line opacity="0.2" y1="19" x2="400" y2="19" stroke="white" stroke-width="2"/>
<line opacity="0.2" x1="369" y1="362" x2="369" y2="-4.37114e-08" stroke="white" stroke-width="2"/>
</g>
<defs>
<filter id="filter0_f_236_385" x="-169" y="-158" width="639" height="620" filterUnits="userSpaceOnUse" color-interpolation-filters="sRGB">
<feFlood flood-opacity="0" result="BackgroundImageFix"/>
<feBlend mode="normal" in="SourceGraphic" in2="BackgroundImageFix" result="shape"/>
<feGaussianBlur stdDeviation="50" result="effect1_foregroundBlur_236_385"/>
</filter>
<filter id="filter1_f_236_385" x="125" y="-200" width="477" height="467" filterUnits="userSpaceOnUse" color-interpolation-filters="sRGB">
<feFlood flood-opacity="0" result="BackgroundImageFix"/>
<feBlend mode="normal" in="SourceGraphic" in2="BackgroundImageFix" result="shape"/>
<feGaussianBlur stdDeviation="50" result="effect1_foregroundBlur_236_385"/>
</filter>
<filter id="filter2_f_236_385" x="130" y="350" width="343" height="280" filterUnits="userSpaceOnUse" color-interpolation-filters="sRGB">
<feFlood flood-opacity="0" result="BackgroundImageFix"/>
<feBlend mode="normal" in="SourceGraphic" in2="BackgroundImageFix" result="shape"/>
<feGaussianBlur stdDeviation="25" result="effect1_foregroundBlur_236_385"/>
</filter>
<linearGradient id="paint0_linear_236_385" x1="200" y1="0" x2="200" y2="500" gradientUnits="userSpaceOnUse">
<stop stop-color="#3671E9"/>
<stop offset="1" stop-color="#2AA2FA" stop-opacity="0.8"/>
</linearGradient>
<clipPath id="clip0_236_385">
<rect width="400" height="500" fill="white"/>
</clipPath>
</defs>
</svg>
