<svg width="90" height="45" viewBox="0 0 90 45" fill="none" xmlns="http://www.w3.org/2000/svg">
<path d="M42.4683 15.8772V7.3739H45.4755C46.4533 7.3739 47.2791 7.53873 47.9528 7.86842C48.6348 8.19811 49.1483 8.68057 49.4934 9.31579C49.8466 9.94298 50.0233 10.7109 50.0233 11.6195C50.0233 12.5201 49.8466 13.288 49.4934 13.9233C49.1483 14.5584 48.6348 15.045 47.9528 15.3827C47.2791 15.7125 46.4533 15.8772 45.4755 15.8772H42.4683ZM43.7501 14.8279H45.4016C46.519 14.8279 47.3489 14.5625 47.8912 14.0318C48.4416 13.5011 48.7169 12.697 48.7169 11.6195C48.7169 10.542 48.4416 9.74197 47.8912 9.21929C47.3489 8.68859 46.519 8.42324 45.4016 8.42324H43.7501V14.8279ZM52.3885 15.8772V9.79824H53.6333V15.8772H52.3885ZM52.2899 8.53179V7.26535H53.7319V8.53179H52.2899ZM58.9948 18.579C58.436 18.579 57.9266 18.5145 57.4665 18.386C57.0146 18.2575 56.6079 18.0645 56.2464 17.807L56.5545 16.9145C56.8092 17.0834 57.0598 17.216 57.3063 17.3125C57.5528 17.4169 57.8116 17.4935 58.0827 17.5417C58.3539 17.5899 58.6332 17.6141 58.9208 17.6141C59.5124 17.6141 59.9561 17.4652 60.2519 17.1678C60.5559 16.8783 60.7079 16.4562 60.7079 15.9014V14.2731H60.8311C60.6996 14.7235 60.4285 15.0812 60.0177 15.3465C59.6151 15.604 59.1467 15.7325 58.6127 15.7325C58.0458 15.7325 57.5528 15.6119 57.1338 15.3706C56.7229 15.1215 56.4025 14.7718 56.1724 14.3213C55.9506 13.863 55.8397 13.3242 55.8397 12.705C55.8397 12.0859 55.9506 11.5512 56.1724 11.1009C56.4025 10.6506 56.7229 10.3048 57.1338 10.0636C57.5528 9.81434 58.0458 9.68969 58.6127 9.68969C59.155 9.68969 59.6233 9.82236 60.0177 10.0877C60.4203 10.345 60.6873 10.6988 60.8188 11.1491L60.7079 11.0526L60.8188 9.79824H62.0266C61.9937 10.0475 61.9691 10.2968 61.9527 10.546C61.9362 10.7873 61.928 11.0245 61.928 11.2577V15.7566C61.928 16.6733 61.6774 17.3728 61.1762 17.8553C60.6832 18.3378 59.9561 18.579 58.9948 18.579ZM58.9085 14.7796C59.4508 14.7796 59.8821 14.5987 60.2026 14.2369C60.5312 13.875 60.6956 13.3643 60.6956 12.705C60.6956 12.0457 60.5312 11.5391 60.2026 11.1853C59.8821 10.8315 59.4508 10.6546 58.9085 10.6546C58.3498 10.6546 57.9061 10.8315 57.5774 11.1853C57.257 11.5391 57.0968 12.0457 57.0968 12.705C57.0968 13.3643 57.257 13.875 57.5774 14.2369C57.9061 14.5987 58.3498 14.7796 58.9085 14.7796ZM64.483 15.8772V9.79824H65.7277V15.8772H64.483ZM64.3844 8.53179V7.26535H65.8263V8.53179H64.3844ZM70.7072 15.9858C70.0334 15.9858 69.524 15.809 69.1789 15.4551C68.8338 15.0932 68.6613 14.5546 68.6613 13.8389V10.739H67.4535V9.79824H68.6613V8.19408L69.9061 7.86842V9.79824H71.6315V10.739H69.9061V13.7303C69.9061 14.1807 69.9882 14.5022 70.1526 14.6952C70.3169 14.8882 70.5551 14.9847 70.8674 14.9847C71.0235 14.9847 71.1591 14.9726 71.2741 14.9485C71.3973 14.9165 71.5083 14.8803 71.6069 14.8399V15.829C71.4836 15.8772 71.3398 15.9134 71.1755 15.9375C71.0112 15.9695 70.8551 15.9858 70.7072 15.9858ZM75.887 15.9858C75.3365 15.9858 74.8558 15.861 74.445 15.6119C74.0341 15.3628 73.7137 15.0009 73.4837 14.5264C73.2618 14.0518 73.1509 13.4891 73.1509 12.8377C73.1509 12.1784 73.2618 11.6155 73.4837 11.1491C73.7137 10.6828 74.0341 10.3249 74.445 10.0757C74.8558 9.81833 75.3365 9.68969 75.887 9.68969C76.4292 9.68969 76.9017 9.82236 77.3043 10.0877C77.7069 10.3531 77.9739 10.7149 78.1054 11.1732H77.9698L78.0931 9.79824H79.3009C79.2762 10.0475 79.2516 10.2968 79.2269 10.546C79.2105 10.7873 79.2023 11.0245 79.2023 11.2577V15.8772H77.9575V14.5264H78.0931C77.9616 14.9768 77.6905 15.3345 77.2796 15.5998C76.8771 15.8573 76.4128 15.9858 75.887 15.9858ZM76.1951 15.0329C76.7292 15.0329 77.1564 14.8478 77.4768 14.4781C77.8055 14.1084 77.9698 13.5614 77.9698 12.8377C77.9698 12.114 77.8055 11.5713 77.4768 11.2094C77.1564 10.8396 76.7292 10.6546 76.1951 10.6546C75.6528 10.6546 75.2173 10.8396 74.8887 11.2094C74.5682 11.5713 74.408 12.114 74.408 12.8377C74.408 13.5614 74.5682 14.1084 74.8887 14.4781C75.2091 14.8478 75.6446 15.0329 76.1951 15.0329ZM81.7581 15.8772V7H83.0029V15.8772H81.7581ZM44.7361 28.0472C44.1856 28.0472 43.7049 27.9224 43.2941 27.6733C42.8833 27.4241 42.5628 27.0623 42.3328 26.5877C42.1109 26.1132 42 25.5505 42 24.8991C42 24.2399 42.1109 23.6768 42.3328 23.2105C42.5628 22.7443 42.8833 22.3862 43.2941 22.1371C43.7049 21.8796 44.1856 21.7511 44.7361 21.7511C45.2783 21.7511 45.7508 21.8838 46.1534 22.1491C46.556 22.4145 46.823 22.7763 46.9545 23.2347H46.8189L46.9422 21.8597H48.15C48.1253 22.1088 48.1007 22.3584 48.076 22.6075C48.0596 22.8487 48.0514 23.0858 48.0514 23.3191V27.9386H46.8066V26.5877H46.9422C46.8107 27.0382 46.5396 27.3959 46.1287 27.6612C45.7261 27.9187 45.2619 28.0472 44.7361 28.0472ZM45.0442 27.0943C45.5782 27.0943 46.0055 26.9092 46.3259 26.5395C46.6546 26.1698 46.8189 25.6228 46.8189 24.8991C46.8189 24.1755 46.6546 23.6327 46.3259 23.2709C46.0055 22.9011 45.5782 22.716 45.0442 22.716C44.5019 22.716 44.0664 22.9011 43.7378 23.2709C43.4173 23.6327 43.2571 24.1755 43.2571 24.8991C43.2571 25.6228 43.4173 26.1698 43.7378 26.5395C44.0582 26.9092 44.4937 27.0943 45.0442 27.0943ZM53.4049 30.6404C52.8462 30.6404 52.3367 30.5759 51.8766 30.4474C51.4247 30.3189 51.018 30.1259 50.6565 29.8684L50.9646 28.9759C51.2193 29.1448 51.4699 29.2774 51.7164 29.3739C51.9629 29.4783 52.2217 29.5548 52.4929 29.6031C52.764 29.6513 53.0434 29.6755 53.331 29.6755C53.9225 29.6755 54.3662 29.5265 54.662 29.2292C54.966 28.9397 55.118 28.5176 55.118 27.9627V26.3344H55.2413C55.1098 26.7849 54.8386 27.1426 54.4278 27.4079C54.0252 27.6654 53.5569 27.7939 53.0228 27.7939C52.4559 27.7939 51.9629 27.6733 51.5439 27.432C51.133 27.1829 50.8126 26.8331 50.5826 26.3827C50.3607 25.9244 50.2498 25.3858 50.2498 24.7665C50.2498 24.1472 50.3607 23.6127 50.5826 23.1623C50.8126 22.7119 51.133 22.3663 51.5439 22.125C51.9629 21.8759 52.4559 21.7511 53.0228 21.7511C53.5651 21.7511 54.0335 21.8838 54.4278 22.1491C54.8304 22.4066 55.0974 22.7601 55.2289 23.2105L55.118 23.1141L55.2289 21.8597H56.4368C56.4039 22.1088 56.3792 22.3584 56.3628 22.6075C56.3464 22.8487 56.3382 23.0858 56.3382 23.3191V27.818C56.3382 28.7347 56.0875 29.4342 55.5864 29.9167C55.0934 30.3991 54.3662 30.6404 53.4049 30.6404ZM53.3186 26.841C53.8609 26.841 54.2923 26.6601 54.6127 26.2983C54.9414 25.9364 55.1057 25.4257 55.1057 24.7665C55.1057 24.1073 54.9414 23.6007 54.6127 23.2467C54.2923 22.8928 53.8609 22.716 53.3186 22.716C52.7599 22.716 52.3162 22.8928 51.9876 23.2467C51.6671 23.6007 51.5069 24.1073 51.5069 24.7665C51.5069 25.4257 51.6671 25.9364 51.9876 26.2983C52.3162 26.6601 52.7599 26.841 53.3186 26.841ZM61.7647 28.0472C60.7623 28.0472 59.9735 27.7698 59.3984 27.2149C58.8232 26.6601 58.5357 25.8924 58.5357 24.9112C58.5357 24.2761 58.6589 23.7213 58.9054 23.2467C59.1601 22.7722 59.5093 22.4066 59.953 22.1491C60.4049 21.8838 60.9266 21.7511 61.5182 21.7511C62.1016 21.7511 62.5905 21.8717 62.9849 22.113C63.3792 22.3542 63.6791 22.6961 63.8846 23.1382C64.0899 23.5724 64.1927 24.0869 64.1927 24.682V25.068H59.5093V24.3684H63.3423L63.1328 24.5252C63.1328 23.9222 62.9931 23.456 62.7137 23.1261C62.4426 22.7884 62.0482 22.6195 61.5306 22.6195C60.9554 22.6195 60.5117 22.8167 60.1995 23.2105C59.8873 23.5965 59.7312 24.1314 59.7312 24.8147V24.9353C59.7312 25.6511 59.9078 26.1897 60.2611 26.5516C60.6226 26.9134 61.132 27.0943 61.7894 27.0943C62.1509 27.0943 62.4877 27.0461 62.8 26.9496C63.1204 26.8452 63.4244 26.6763 63.712 26.443L64.1187 27.2752C63.8311 27.5243 63.4819 27.7173 63.0711 27.8542C62.6603 27.9827 62.2248 28.0472 61.7647 28.0472ZM66.3605 27.9386V23.3191C66.3605 23.0858 66.3482 22.8487 66.3235 22.6075C66.3071 22.3584 66.2866 22.1088 66.2619 21.8597H67.4697L67.5807 23.1382H67.4328C67.6217 22.6877 67.9134 22.3463 68.3078 22.113C68.7022 21.8717 69.1582 21.7511 69.6758 21.7511C70.4071 21.7511 70.9576 21.9483 71.3273 22.3421C71.7053 22.736 71.8943 23.3474 71.8943 24.1755V27.9386H70.6495V24.2478C70.6495 23.7092 70.5386 23.3233 70.3167 23.0899C70.1031 22.8487 69.7744 22.7281 69.3307 22.7281C68.8049 22.7281 68.3859 22.8891 68.0736 23.2105C67.7614 23.5241 67.6053 23.9505 67.6053 24.4891V27.9386H66.3605ZM77.1294 28.0472C76.505 28.0472 75.9586 27.9224 75.4902 27.6733C75.0302 27.4158 74.6727 27.0502 74.418 26.5757C74.1715 26.0932 74.0483 25.5222 74.0483 24.863C74.0483 24.2116 74.1756 23.6526 74.4303 23.1864C74.6851 22.7202 75.0425 22.3663 75.5026 22.125C75.9627 21.8759 76.505 21.7511 77.1294 21.7511C77.5321 21.7511 77.9223 21.8193 78.3003 21.9562C78.6782 22.0847 78.9904 22.2698 79.2369 22.511L78.8302 23.3673C78.6002 23.1502 78.3414 22.9893 78.0538 22.8849C77.7662 22.7722 77.4868 22.716 77.2157 22.716C76.6241 22.716 76.1599 22.9011 75.823 23.2709C75.4862 23.6406 75.3177 24.1755 75.3177 24.875C75.3177 25.5825 75.4862 26.1252 75.823 26.5033C76.1599 26.8814 76.6241 27.0702 77.2157 27.0702C77.4786 27.0702 77.7539 27.0219 78.0414 26.9255C78.329 26.8211 78.592 26.6559 78.8302 26.4309L79.2369 27.2873C78.9822 27.5285 78.6618 27.7173 78.2756 27.8542C77.8977 27.9827 77.5156 28.0472 77.1294 28.0472ZM81.1828 30.6765L80.887 29.6875C81.2732 29.6073 81.5936 29.5108 81.8483 29.398C82.1113 29.2853 82.329 29.1369 82.5015 28.9518C82.6741 28.775 82.822 28.5459 82.9452 28.2643L83.2533 27.5526L83.2287 28.0472L80.5296 21.8597H81.8606L83.9558 26.9255H83.6231L85.7182 21.8597H87L84.153 28.3728C83.9723 28.775 83.7792 29.1127 83.5738 29.386C83.3684 29.6592 83.1465 29.8805 82.9082 30.0494C82.6699 30.2182 82.407 30.3509 82.1195 30.4474C81.8319 30.5439 81.5197 30.6204 81.1828 30.6765ZM42.4683 40V31.4967H45.4755C46.4533 31.4967 47.2791 31.6614 47.9528 31.9912C48.6348 32.3211 49.1483 32.8035 49.4934 33.4386C49.8466 34.0658 50.0233 34.8336 50.0233 35.7423C50.0233 36.6428 49.8466 37.411 49.4934 38.0461C49.1483 38.6811 48.6348 39.1678 47.9528 39.5055C47.2791 39.8353 46.4533 40 45.4755 40H42.4683ZM43.7501 38.9507H45.4016C46.519 38.9507 47.3489 38.6853 47.8912 38.1546C48.4416 37.6239 48.7169 36.82 48.7169 35.7423C48.7169 34.6647 48.4416 33.8649 47.8912 33.3421C47.3489 32.8114 46.519 32.5461 45.4016 32.5461H43.7501V38.9507ZM51.7462 40V38.5647H53.2129V40H51.7462ZM55.0472 40L58.9172 31.4967H60.0141L63.9456 40H62.6269L61.5546 37.5877L62.0969 37.9254H56.8343L57.4136 37.5877L56.3413 40H55.0472ZM59.4471 32.8717L57.5738 37.2018L57.278 36.9243H61.6532L61.4067 37.2018L59.4964 32.8717H59.4471ZM65.7785 40V38.5647H67.2451V40H65.7785Z" fill="white"/>
<path fill-rule="evenodd" clip-rule="evenodd" d="M6.95194 8.87471C6.90573 8.91035 6.87926 8.96497 6.87926 9.02267V38.8096C6.87926 38.9147 6.79242 39 6.6853 39H3.19396C3.08684 39 3 38.9147 3 38.8096V7.59827C3 7.39353 3.08398 7.1974 3.23299 7.05415L3.58246 6.71815C6.97116 3.46023 11.9613 2.54169 16.6643 3.19936C21.3876 3.85988 26.1709 6.14494 29.4041 9.77678C34.1897 15.1523 36.4696 21.0444 35.9195 26.3357C35.3588 31.729 31.8883 36.142 25.9895 38.3944L24.6976 38.8878C24.5136 38.958 24.3053 38.8814 24.2135 38.7099L14.8095 21.1295C14.7153 20.9535 14.4438 21.0192 14.4438 21.218V28.1851C14.4438 28.2902 14.5306 28.3754 14.6378 28.3754H16.4417C16.5488 28.3754 16.6356 28.4607 16.6356 28.5659V31.9931C16.6356 32.0983 16.5488 32.1835 16.4417 32.1835H10.7585C10.6514 32.1835 10.5646 32.0983 10.5646 31.9931V12.0295C10.5646 11.9244 10.6514 11.8391 10.7585 11.8391H14.1042C14.1763 11.8391 14.2425 11.8784 14.2759 11.941L26.0644 33.9789C26.1141 34.0719 26.2319 34.1076 26.3261 34.0576C29.8592 32.1814 31.7143 29.2776 32.0603 25.9491C32.4699 22.0087 30.793 17.1239 26.4831 12.2826C23.9363 9.42173 20.0397 7.5179 16.1172 6.96936C12.5363 6.46861 9.22029 7.1255 6.95194 8.87471Z" fill="white"/>
</svg>
