<svg width="35" height="35" viewBox="0 0 35 35" fill="none" xmlns="http://www.w3.org/2000/svg">
<path d="M14.7656 30.625H5.46875C5.32371 30.625 5.18461 30.5674 5.08205 30.4648C4.97949 30.3623 4.92188 30.2232 4.92188 30.0781V18.0469C4.92188 17.9018 4.97949 17.7627 5.08205 17.6602C5.18461 17.5576 5.32371 17.5 5.46875 17.5H13.125V10.9375H5.46875C5.32371 10.9375 5.18461 10.8799 5.08205 10.7773C4.97949 10.6748 4.92188 10.5357 4.92188 10.3906V2.73438C4.92188 2.58934 4.97949 2.45024 5.08205 2.34769C5.18461 2.24513 5.32371 2.18751 5.46875 2.18751H20.7812C20.8532 2.18709 20.9246 2.20089 20.9912 2.2281C21.0578 2.25532 21.1184 2.29542 21.1695 2.3461L25.5445 6.7211C25.5952 6.7722 25.6353 6.83281 25.6625 6.89944C25.6897 6.96607 25.7035 7.03741 25.7031 7.10938V21.3281C25.7031 21.4732 25.6455 21.6123 25.5429 21.7148C25.4404 21.8174 25.3013 21.875 25.1562 21.875H15.3125V30.0781C15.3125 30.2232 15.2549 30.3623 15.1523 30.4648C15.0498 30.5674 14.9107 30.625 14.7656 30.625ZM6.01562 29.5313H14.2188V21.3281C14.2188 21.1831 14.2764 21.044 14.3789 20.9414C14.4815 20.8389 14.6206 20.7813 14.7656 20.7813H24.6094V7.3336L20.557 3.28126H6.01562V9.84376H13.6719C13.8169 9.84376 13.956 9.90138 14.0586 10.0039C14.1611 10.1065 14.2188 10.2456 14.2188 10.3906V18.0469C14.2188 18.1919 14.1611 18.331 14.0586 18.4336C13.956 18.5361 13.8169 18.5938 13.6719 18.5938H6.01562V29.5313Z" fill="white"/>
<path d="M32.2656 32.8125H14.7656C14.6206 32.8125 14.4815 32.7549 14.3789 32.6523C14.2764 32.5498 14.2188 32.4107 14.2188 32.2656V21.3281C14.2188 21.1831 14.2764 21.044 14.3789 20.9414C14.4815 20.8389 14.6206 20.7812 14.7656 20.7812H32.2656C32.4107 20.7812 32.5498 20.8389 32.6523 20.9414C32.7549 21.044 32.8125 21.1831 32.8125 21.3281V32.2656C32.8125 32.4107 32.7549 32.5498 32.6523 32.6523C32.5498 32.7549 32.4107 32.8125 32.2656 32.8125ZM15.3125 31.7188H31.7188V21.875H15.3125V31.7188ZM13.6719 18.5938H2.73438C2.58933 18.5938 2.45024 18.5361 2.34768 18.4336C2.24512 18.331 2.1875 18.1919 2.1875 18.0469V10.3906C2.1875 10.2456 2.24512 10.1065 2.34768 10.0039C2.45024 9.90137 2.58933 9.84375 2.73438 9.84375H13.6719C13.8169 9.84375 13.956 9.90137 14.0586 10.0039C14.1611 10.1065 14.2188 10.2456 14.2188 10.3906V18.0469C14.2188 18.1919 14.1611 18.331 14.0586 18.4336C13.956 18.5361 13.8169 18.5938 13.6719 18.5938ZM3.28125 17.5H13.125V10.9375H3.28125V17.5ZM30.0344 20.2344C29.9499 20.2329 29.867 20.2119 29.792 20.173C29.7171 20.1341 29.6522 20.0784 29.6023 20.0102L28.0055 17.8227C27.9336 17.7302 27.8934 17.6171 27.8906 17.5V6.01562C27.8906 5.72554 28.0059 5.44735 28.211 5.24223C28.4161 5.03711 28.6943 4.92187 28.9844 4.92188H31.1719C31.462 4.92188 31.7402 5.03711 31.9453 5.24223C32.1504 5.44735 32.2656 5.72554 32.2656 6.01562V17.5C32.2652 17.6208 32.2249 17.7381 32.1508 17.8336L30.4664 20.0211C30.4155 20.0873 30.35 20.1409 30.2751 20.1779C30.2003 20.2148 30.1179 20.2342 30.0344 20.2344ZM28.9844 17.3195L30.0453 18.7742L31.1719 17.3141V6.01562H28.9844V17.3195Z" fill="white"/>
<path d="M31.1719 6.01562H28.9844C28.8393 6.01562 28.7002 5.95801 28.5977 5.85545C28.4951 5.75289 28.4375 5.61379 28.4375 5.46875V3.82812C28.4375 3.393 28.6104 2.9757 28.918 2.66803C29.2257 2.36035 29.643 2.1875 30.0781 2.1875C30.5132 2.1875 30.9305 2.36035 31.2382 2.66803C31.5459 2.9757 31.7188 3.393 31.7188 3.82812V5.46875C31.7188 5.61379 31.6611 5.75289 31.5586 5.85545C31.456 5.95801 31.3169 6.01562 31.1719 6.01562ZM29.5312 4.92188H30.625V3.82812C30.625 3.68308 30.5674 3.54399 30.4648 3.44143C30.3623 3.33887 30.2232 3.28125 30.0781 3.28125C29.9331 3.28125 29.794 3.33887 29.6914 3.44143C29.5889 3.54399 29.5312 3.68308 29.5312 3.82812V4.92188ZM6.01563 15.3125C5.69114 15.3125 5.37394 15.2163 5.10414 15.036C4.83434 14.8557 4.62406 14.5995 4.49989 14.2997C4.37571 13.9999 4.34322 13.6701 4.40652 13.3518C4.46983 13.0336 4.62608 12.7412 4.85553 12.5118C5.08497 12.2823 5.37731 12.1261 5.69556 12.0628C6.01381 11.9995 6.34368 12.032 6.64347 12.1561C6.94325 12.2803 7.19948 12.4906 7.37976 12.7604C7.56003 13.0302 7.65625 13.3474 7.65625 13.6719C7.65625 14.107 7.4834 14.5243 7.17572 14.832C6.86805 15.1396 6.45075 15.3125 6.01563 15.3125ZM6.01563 13.125C5.90746 13.125 5.80173 13.1571 5.7118 13.2172C5.62187 13.2773 5.55177 13.3627 5.51038 13.4626C5.46899 13.5625 5.45816 13.6725 5.47926 13.7786C5.50036 13.8846 5.55245 13.9821 5.62893 14.0586C5.70541 14.1351 5.80285 14.1871 5.90894 14.2082C6.01502 14.2293 6.12498 14.2185 6.22491 14.1771C6.32483 14.1357 6.41024 14.0656 6.47034 13.9757C6.53043 13.8858 6.5625 13.78 6.5625 13.6719C6.5625 13.5268 6.50488 13.3877 6.40232 13.2852C6.29977 13.1826 6.16067 13.125 6.01563 13.125ZM11.4844 14.7656H9.29688C9.15184 14.7656 9.01274 14.708 8.91018 14.6054C8.80762 14.5029 8.75 14.3638 8.75 14.2188C8.75 14.0737 8.80762 13.9346 8.91018 13.8321C9.01274 13.7295 9.15184 13.6719 9.29688 13.6719H11.4844C11.6294 13.6719 11.7685 13.7295 11.8711 13.8321C11.9736 13.9346 12.0313 14.0737 12.0313 14.2188C12.0313 14.3638 11.9736 14.5029 11.8711 14.6054C11.7685 14.708 11.6294 14.7656 11.4844 14.7656ZM11.4844 16.4062H9.29688C9.15184 16.4062 9.01274 16.3486 8.91018 16.2461C8.80762 16.1435 8.75 16.0044 8.75 15.8594C8.75 15.7143 8.80762 15.5752 8.91018 15.4727C9.01274 15.3701 9.15184 15.3125 9.29688 15.3125H11.4844C11.6294 15.3125 11.7685 15.3701 11.8711 15.4727C11.9736 15.5752 12.0313 15.7143 12.0313 15.8594C12.0313 16.0044 11.9736 16.1435 11.8711 16.2461C11.7685 16.3486 11.6294 16.4062 11.4844 16.4062ZM9.84375 8.75C9.4111 8.75 8.98817 8.62171 8.62844 8.38134C8.26871 8.14097 7.98833 7.79933 7.82276 7.39962C7.6572 6.99991 7.61388 6.56007 7.69828 6.13574C7.78269 5.71141 7.99103 5.32163 8.29695 5.0157C8.60288 4.70978 8.99266 4.50144 9.41699 4.41703C9.84132 4.33263 10.2812 4.37595 10.6809 4.54151C11.0806 4.70708 11.4222 4.98746 11.6626 5.34719C11.903 5.70692 12.0313 6.12985 12.0313 6.5625C12.0313 7.14266 11.8008 7.69906 11.3905 8.1093C10.9803 8.51953 10.4239 8.75 9.84375 8.75ZM9.84375 5.46875C9.62743 5.46875 9.41596 5.5329 9.2361 5.65308C9.05623 5.77326 8.91604 5.94408 8.83326 6.14394C8.75047 6.3438 8.72881 6.56371 8.77102 6.77588C8.81322 6.98805 8.91739 7.18293 9.07035 7.3359C9.22332 7.48886 9.4182 7.59303 9.63037 7.63523C9.84254 7.67744 10.0625 7.65578 10.2623 7.57299C10.4622 7.49021 10.633 7.35002 10.7532 7.17016C10.8734 6.99029 10.9375 6.77882 10.9375 6.5625C10.9375 6.27242 10.8223 5.99422 10.6171 5.7891C10.412 5.58398 10.1338 5.46875 9.84375 5.46875ZM18.5938 6.01562H13.6719C13.5268 6.01562 13.3877 5.95801 13.2852 5.85545C13.1826 5.75289 13.125 5.61379 13.125 5.46875C13.125 5.32371 13.1826 5.18461 13.2852 5.08205C13.3877 4.97949 13.5268 4.92188 13.6719 4.92188H18.5938C18.7388 4.92188 18.8779 4.97949 18.9805 5.08205C19.083 5.18461 19.1406 5.32371 19.1406 5.46875C19.1406 5.61379 19.083 5.75289 18.9805 5.85545C18.8779 5.95801 18.7388 6.01562 18.5938 6.01562ZM16.4063 8.20312H13.6719C13.5268 8.20312 13.3877 8.14551 13.2852 8.04295C13.1826 7.94039 13.125 7.80129 13.125 7.65625C13.125 7.51121 13.1826 7.37211 13.2852 7.26955C13.3877 7.16699 13.5268 7.10938 13.6719 7.10938H16.4063C16.5513 7.10938 16.6904 7.16699 16.793 7.26955C16.8955 7.37211 16.9531 7.51121 16.9531 7.65625C16.9531 7.80129 16.8955 7.94039 16.793 8.04295C16.6904 8.14551 16.5513 8.20312 16.4063 8.20312ZM25.1562 7.65625H20.7813C20.6362 7.65625 20.4971 7.59863 20.3946 7.49607C20.292 7.39352 20.2344 7.25442 20.2344 7.10938V2.73438C20.2349 2.62641 20.2674 2.52102 20.3277 2.43148C20.3881 2.34195 20.4736 2.27228 20.5734 2.23125C20.673 2.18937 20.7828 2.17793 20.8889 2.19837C20.995 2.21881 21.0926 2.27021 21.1695 2.34609L25.5445 6.72109C25.6204 6.798 25.6718 6.89565 25.6923 7.00174C25.7127 7.10783 25.7013 7.2176 25.6594 7.31719C25.6183 7.41706 25.5487 7.50255 25.4591 7.56289C25.3696 7.62323 25.2642 7.65571 25.1562 7.65625ZM21.3281 6.5625H23.8383L21.3281 4.05234V6.5625ZM23.5156 26.25C23.43 26.2495 23.3457 26.2289 23.2695 26.1898L14.5195 21.8148C14.4012 21.7437 14.3142 21.6303 14.276 21.4976C14.2378 21.365 14.2511 21.2227 14.3135 21.0995C14.3758 20.9763 14.4824 20.8812 14.6119 20.8333C14.7414 20.7854 14.8842 20.7883 15.0117 20.8414L23.5156 25.0906L32.0195 20.8414C32.084 20.8026 32.1557 20.7776 32.2303 20.7678C32.3048 20.758 32.3806 20.7637 32.4529 20.7845C32.5251 20.8053 32.5923 20.8408 32.6503 20.8888C32.7082 20.9367 32.7556 20.9961 32.7895 21.0632C32.8235 21.1303 32.8432 21.2037 32.8475 21.2788C32.8518 21.3539 32.8405 21.4291 32.8144 21.4996C32.7884 21.5701 32.748 21.6345 32.6959 21.6888C32.6439 21.743 32.5811 21.7859 32.5117 21.8148L23.7617 26.1898C23.6855 26.2289 23.6012 26.2495 23.5156 26.25ZM18.3203 30.625C17.9417 30.625 17.5717 30.5127 17.2569 30.3024C16.9422 30.0921 16.6968 29.7932 16.552 29.4434C16.4071 29.0937 16.3692 28.7088 16.443 28.3375C16.5169 27.9662 16.6992 27.6252 16.9669 27.3575C17.2346 27.0898 17.5756 26.9075 17.9469 26.8337C18.3182 26.7598 18.703 26.7977 19.0528 26.9426C19.4025 27.0874 19.7015 27.3328 19.9118 27.6475C20.1221 27.9623 20.2344 28.3324 20.2344 28.7109C20.2344 29.2186 20.0327 29.7054 19.6738 30.0644C19.3148 30.4233 18.828 30.625 18.3203 30.625ZM18.3203 27.8906C18.1581 27.8906 17.9995 27.9387 17.8646 28.0289C17.7297 28.119 17.6245 28.2471 17.5624 28.397C17.5004 28.5469 17.4841 28.7118 17.5158 28.871C17.5474 29.0301 17.6255 29.1763 17.7403 29.291C17.855 29.4057 18.0012 29.4838 18.1603 29.5155C18.3194 29.5471 18.4843 29.5309 18.6342 29.4688C18.7841 29.4067 18.9122 29.3016 19.0024 29.1667C19.0925 29.0318 19.1406 28.8732 19.1406 28.7109C19.1406 28.4934 19.0542 28.2847 18.9004 28.1309C18.7465 27.9771 18.5379 27.8906 18.3203 27.8906ZM26.7969 28.4375H21.875C21.73 28.4375 21.5909 28.3799 21.4883 28.2773C21.3857 28.1748 21.3281 28.0357 21.3281 27.8906C21.3281 27.7456 21.3857 27.6065 21.4883 27.5039C21.5909 27.4014 21.73 27.3438 21.875 27.3438H26.7969C26.9419 27.3438 27.081 27.4014 27.1836 27.5039C27.2861 27.6065 27.3438 27.7456 27.3438 27.8906C27.3438 28.0357 27.2861 28.1748 27.1836 28.2773C27.081 28.3799 26.9419 28.4375 26.7969 28.4375ZM24.6094 30.625H21.875C21.73 30.625 21.5909 30.5674 21.4883 30.4648C21.3857 30.3623 21.3281 30.2232 21.3281 30.0781C21.3281 29.9331 21.3857 29.794 21.4883 29.6914C21.5909 29.5889 21.73 29.5312 21.875 29.5312H24.6094C24.7544 29.5312 24.8935 29.5889 24.9961 29.6914C25.0986 29.794 25.1562 29.9331 25.1562 30.0781C25.1562 30.2232 25.0986 30.3623 24.9961 30.4648C24.8935 30.5674 24.7544 30.625 24.6094 30.625Z" fill="white"/>
</svg>
