<svg width="35" height="35" viewBox="0 0 35 35" fill="none" xmlns="http://www.w3.org/2000/svg">
<g clip-path="url(#clip0_418_566)">
<path d="M34.9999 9.47917C34.9999 8.70562 34.6926 7.96375 34.1457 7.41677C33.5987 6.86979 32.8568 6.5625 32.0833 6.5625H24.0624V5.10417C24.0624 4.33062 23.7551 3.58875 23.2082 3.04177C22.6612 2.49479 21.9193 2.1875 21.1458 2.1875H13.8541C13.0806 2.1875 12.3387 2.49479 11.7917 3.04177C11.2447 3.58875 10.9374 4.33062 10.9374 5.10417V6.5625H2.9166C2.14305 6.5625 1.40119 6.86979 0.854206 7.41677C0.307225 7.96375 -6.63381e-05 8.70562 -6.63381e-05 9.47917C-6.63381e-05 12.8115 -0.357358 14.999 1.45827 17.2375V29.8958C1.45827 30.6694 1.76556 31.4112 2.31254 31.9582C2.85952 32.5052 3.60139 32.8125 4.37493 32.8125H30.6249C31.3985 32.8125 32.1403 32.5052 32.6873 31.9582C33.2343 31.4112 33.5416 30.6694 33.5416 29.8958V17.2375C35.3135 15.05 34.9999 13.1979 34.9999 9.47917ZM12.3958 5.10417C12.3958 4.71739 12.5494 4.34646 12.8229 4.07297C13.0964 3.79948 13.4673 3.64583 13.8541 3.64583H21.1458C21.5325 3.64583 21.9035 3.79948 22.177 4.07297C22.4505 4.34646 22.6041 4.71739 22.6041 5.10417V6.5625H12.3958V5.10417ZM30.6249 31.3542H4.37493C3.98816 31.3542 3.61723 31.2005 3.34374 30.927C3.07025 30.6535 2.9166 30.2826 2.9166 29.8958V18.5792C5.0166 19.9865 6.09577 19.6875 14.5833 19.6875V20.4167C14.3899 20.4167 14.2044 20.4935 14.0677 20.6302C13.9309 20.767 13.8541 20.9524 13.8541 21.1458C13.8541 21.3392 13.9309 21.5247 14.0677 21.6614C14.2044 21.7982 14.3899 21.875 14.5833 21.875C14.5833 23.3333 14.4885 23.6615 14.9114 23.9385C17.2812 25.5208 17.201 25.5208 17.4999 25.5208C17.7989 25.5208 17.6968 25.5208 20.0885 23.9385C20.5041 23.6688 20.4166 23.4062 20.4166 21.875C20.61 21.875 20.7955 21.7982 20.9322 21.6614C21.0689 21.5247 21.1458 21.3392 21.1458 21.1458C21.1458 20.9524 21.0689 20.767 20.9322 20.6302C20.7955 20.4935 20.61 20.4167 20.4166 20.4167V19.6875C28.5906 19.6875 29.8958 20.0448 32.0833 18.5792V29.8958C32.0833 30.2826 31.9296 30.6535 31.6561 30.927C31.3826 31.2005 31.0117 31.3542 30.6249 31.3542ZM14.5833 16.0417V14.5833H20.4166V16.0417H14.5833ZM18.9583 17.5V20.4167H16.0416V17.5H18.9583ZM16.0416 21.875H18.9583V22.9396L17.4999 23.9167L16.0416 22.9396V21.875ZM33.5416 13.125C33.5416 14.4787 33.0038 15.777 32.0466 16.7342C31.0894 17.6914 29.7911 18.2292 28.4374 18.2292H20.4166V17.5C20.8034 17.5 21.1743 17.3464 21.4478 17.0729C21.7213 16.7994 21.8749 16.4284 21.8749 16.0417V14.5833C21.8749 14.1966 21.7213 13.8256 21.4478 13.5521C21.1743 13.2786 20.8034 13.125 20.4166 13.125H14.5833C14.1965 13.125 13.8256 13.2786 13.5521 13.5521C13.2786 13.8256 13.1249 14.1966 13.1249 14.5833V16.0417C13.1249 16.4284 13.2786 16.7994 13.5521 17.0729C13.8256 17.3464 14.1965 17.5 14.5833 17.5V18.2292H6.56243C5.20872 18.2292 3.91046 17.6914 2.95324 16.7342C1.99603 15.777 1.45827 14.4787 1.45827 13.125V9.47917C1.45827 9.09239 1.61191 8.72146 1.8854 8.44797C2.15889 8.17448 2.52983 8.02083 2.9166 8.02083H32.0833C32.47 8.02083 32.841 8.17448 33.1145 8.44797C33.388 8.72146 33.5416 9.09239 33.5416 9.47917V13.125Z" fill="white"/>
</g>
<defs>
<clipPath id="clip0_418_566">
<rect width="35" height="35" fill="white"/>
</clipPath>
</defs>
</svg>
