<svg width="35" height="35" viewBox="0 0 35 35" fill="none" xmlns="http://www.w3.org/2000/svg">
<path d="M17.9632 6.22793C17.8602 6.07352 17.7058 5.97058 17.5 5.97058C17.2941 5.97058 17.1397 6.07352 17.0367 6.22793C13.2794 13.6397 13.5882 13.0735 13.5882 13.1765V32.6838C13.5882 33.6618 14.4117 34.4853 15.3897 34.4853H19.6102C20.5882 34.4853 21.4117 33.6618 21.4117 32.6838C21.4117 11.8382 21.4632 13.0735 21.3088 12.8676L17.9632 6.22793ZM17.5 7.61764L18.6323 9.83088C17.9117 10.0882 17.0882 10.0882 16.3676 9.83088L17.5 7.61764ZM15.9044 10.7573C16.9338 11.1176 18.0661 11.1176 19.0955 10.7573L20.0735 12.6618H14.9264L15.9044 10.7573ZM14.6176 13.6912H16.9852V28.5662H14.6176V13.6912ZM20.3823 32.6838C20.3823 33.0956 20.022 33.4559 19.6102 33.4559H15.3897C14.9779 33.4559 14.6176 33.0956 14.6176 32.6838V29.5956H20.3823V32.6838ZM20.3823 28.5662H18.0147V13.6912H20.3823V28.5662Z" fill="white"/>
<path d="M28.7721 4.73524C29.9559 4.73524 30.8824 3.80877 30.8824 2.62494C30.8824 1.44112 29.9559 0.514648 28.7721 0.514648C27.7941 0.514648 27.0221 1.18377 26.7647 2.11024H19.6103V1.02935C19.6103 0.720531 19.4044 0.514648 19.0956 0.514648H15.9559C15.6471 0.514648 15.4412 0.720531 15.4412 1.02935V2.11024H8.23532C7.97797 1.18377 7.20591 0.514648 6.1765 0.514648C5.04415 0.514648 4.11768 1.44112 4.11768 2.62494C4.11768 3.7573 5.04415 4.73524 6.1765 4.73524C7.15444 4.73524 7.97797 4.06612 8.18385 3.13965H12.6618C9.16179 4.68377 6.53679 7.92641 5.81621 11.8382H4.63238C4.32356 11.8382 4.11768 12.0441 4.11768 12.3529V15.4926C4.11768 15.8014 4.32356 16.0073 4.63238 16.0073H7.82356C8.13238 16.0073 8.33826 15.8014 8.33826 15.4926V12.3529C8.33826 12.0441 8.13238 11.8382 7.82356 11.8382H6.94856C7.77209 7.56612 11.1691 4.22053 15.4412 3.34553V4.22053C15.4412 4.52935 15.6471 4.73524 15.9559 4.73524H19.0956C19.4044 4.73524 19.6103 4.52935 19.6103 4.22053V3.34553C23.8824 4.16906 27.228 7.56612 28.103 11.8382H27.228C26.9191 11.8382 26.7133 12.0441 26.7133 12.3529V15.4926C26.7133 15.8014 26.9191 16.0073 27.228 16.0073H30.3677C30.6765 16.0073 30.8824 15.8014 30.8824 15.4926V12.3529C30.8824 12.0441 30.6765 11.8382 30.3677 11.8382H29.0809C28.3603 7.92641 25.7868 4.73524 22.2353 3.13965H26.7647C27.0221 4.01465 27.7941 4.73524 28.7721 4.73524ZM28.8236 1.54406C29.3897 1.54406 29.853 2.0073 29.853 2.62494C29.853 3.19112 29.3897 3.70582 28.7721 3.70582C28.2059 3.70582 27.6912 3.24259 27.6912 2.62494C27.7427 2.0073 28.2059 1.54406 28.8236 1.54406ZM6.22797 3.70582C5.61032 3.70582 5.14709 3.24259 5.14709 2.62494C5.14709 2.0073 5.61032 1.54406 6.22797 1.54406C6.79415 1.54406 7.30885 2.0073 7.30885 2.62494C7.25738 3.19112 6.79415 3.70582 6.22797 3.70582ZM7.25738 12.8676V14.9779H5.14709V12.8676H7.25738ZM18.5809 3.70582H16.4706V1.54406H18.5809V3.70582ZM29.853 12.8676V14.9779H27.6912V12.8676H29.853Z" fill="white"/>
</svg>
