<svg width="35" height="35" viewBox="0 0 35 35" fill="none" xmlns="http://www.w3.org/2000/svg">
<path d="M6.25445 13H4.82495C4.69234 13 4.56517 13.0527 4.4714 13.1464C4.37763 13.2402 4.32495 13.3674 4.32495 13.5C4.32495 13.6326 4.37763 13.7598 4.4714 13.8536C4.56517 13.9473 4.69234 14 4.82495 14H6.25395C6.38656 14 6.51374 13.9473 6.6075 13.8536C6.70127 13.7598 6.75395 13.6326 6.75395 13.5C6.75395 13.3674 6.70127 13.2402 6.6075 13.1464C6.51374 13.0527 6.38656 13 6.25395 13H6.25445ZM9.68295 13.5C9.68295 13.6326 9.73563 13.7598 9.8294 13.8536C9.92317 13.9473 10.0503 14 10.183 14H11.612C11.7446 14 11.8717 13.9473 11.9655 13.8536C12.0593 13.7598 12.112 13.6326 12.112 13.5C12.112 13.3674 12.0593 13.2402 11.9655 13.1464C11.8717 13.0527 11.7446 13 11.612 13H10.183C10.0503 13 9.92317 13.0527 9.8294 13.1464C9.73563 13.2402 9.68295 13.3674 9.68295 13.5Z" fill="white"/>
<path d="M32.5 1.5H11.5C10.9485 1.5 10.5 1.9485 10.5 2.5V10.5H2.5C1.9485 10.5 1.5 10.9485 1.5 11.5V32.5C1.5 33.0515 1.9485 33.5 2.5 33.5H23.5C24.0515 33.5 24.5 33.0515 24.5 32.5V24.5H32.5C33.0515 24.5 33.5 24.0515 33.5 23.5V2.5C33.5 1.9485 33.0515 1.5 32.5 1.5ZM23.5 32.5H2.5V16.5H23.5V32.5ZM23.5 15.5H2.5V11.5H11.002L23.5 11.4985V15.5ZM32.5 23.5H24.5V11.5C24.5 10.9485 24.0515 10.5 23.5 10.5H11.5V7.5H32.5V23.5ZM32.5 6.5H11.5V2.5H32.5V6.5Z" fill="white"/>
<path d="M13.8254 5H15.2544C15.387 5 15.5142 4.94732 15.6079 4.85355C15.7017 4.75979 15.7544 4.63261 15.7544 4.5C15.7544 4.36739 15.7017 4.24021 15.6079 4.14645C15.5142 4.05268 15.387 4 15.2544 4H13.8249C13.6923 4 13.5651 4.05268 13.4713 4.14645C13.3776 4.24021 13.3249 4.36739 13.3249 4.5C13.3249 4.63261 13.3776 4.75979 13.4713 4.85355C13.5651 4.94732 13.6923 5 13.8249 5H13.8254ZM19.1829 5H20.6119C20.7445 5 20.8717 4.94732 20.9654 4.85355C21.0592 4.75979 21.1119 4.63261 21.1119 4.5C21.1119 4.36739 21.0592 4.24021 20.9654 4.14645C20.8717 4.05268 20.7445 4 20.6119 4H19.1829C19.0503 4 18.9231 4.05268 18.8293 4.14645C18.7356 4.24021 18.6829 4.36739 18.6829 4.5C18.6829 4.63261 18.7356 4.75979 18.8293 4.85355C18.9231 4.94732 19.0503 5 19.1829 5ZM8.64639 27.8535C8.69272 27.9001 8.7478 27.9371 8.80847 27.9623C8.86913 27.9875 8.93419 28.0005 8.99989 28.0005C9.0656 28.0005 9.13065 27.9875 9.19132 27.9623C9.25199 27.9371 9.30707 27.9001 9.35339 27.8535C9.44713 27.7597 9.49979 27.6326 9.49979 27.5C9.49979 27.3674 9.44713 27.2403 9.35339 27.1465L7.20689 25L9.35339 22.8535C9.40115 22.8074 9.43924 22.7522 9.46544 22.6912C9.49165 22.6302 9.50544 22.5646 9.50602 22.4982C9.5066 22.4318 9.49394 22.366 9.4688 22.3045C9.44366 22.2431 9.40654 22.1872 9.35959 22.1403C9.31264 22.0934 9.25682 22.0562 9.19537 22.0311C9.13392 22.0059 9.06808 21.9933 9.00169 21.9939C8.9353 21.9945 8.86969 22.0082 8.80869 22.0344C8.74769 22.0607 8.69252 22.0987 8.64639 22.1465L6.14639 24.6465C6.05266 24.7403 6 24.8674 6 25C6 25.1326 6.05266 25.2597 6.14639 25.3535L8.64639 27.8535ZM16.6464 27.8535C16.6927 27.9001 16.7478 27.9371 16.8085 27.9623C16.8691 27.9875 16.9342 28.0005 16.9999 28.0005C17.0656 28.0005 17.1307 27.9875 17.1913 27.9623C17.252 27.9371 17.3071 27.9001 17.3534 27.8535L19.8534 25.3535C19.9471 25.2597 19.9998 25.1326 19.9998 25C19.9998 24.8674 19.9471 24.7403 19.8534 24.6465L17.3534 22.1465C17.3073 22.0987 17.2521 22.0607 17.1911 22.0344C17.1301 22.0082 17.0645 21.9945 16.9981 21.9939C16.9317 21.9933 16.8659 22.0059 16.8044 22.0311C16.743 22.0562 16.6871 22.0934 16.6402 22.1403C16.5932 22.1872 16.5561 22.2431 16.531 22.3045C16.5058 22.366 16.4932 22.4318 16.4938 22.4982C16.4943 22.5646 16.5081 22.6302 16.5343 22.6912C16.5605 22.7522 16.5986 22.8074 16.6464 22.8535L18.7929 25L16.6464 27.1465C16.5527 27.2403 16.5 27.3674 16.5 27.5C16.5 27.6326 16.5527 27.7597 16.6464 27.8535ZM10.5454 30.4975C10.6053 30.5244 10.6699 30.5392 10.7355 30.5411C10.8011 30.543 10.8664 30.532 10.9278 30.5086C10.9891 30.4853 11.0452 30.4501 11.093 30.405C11.1407 30.3599 11.1791 30.3059 11.2059 30.246L15.7059 20.2045C15.7327 20.1446 15.7475 20.08 15.7494 20.0144C15.7513 19.9488 15.7403 19.8835 15.7169 19.8222C15.6936 19.7608 15.6584 19.7047 15.6133 19.657C15.5683 19.6092 15.5143 19.5709 15.4544 19.544C15.3945 19.5171 15.3299 19.5023 15.2643 19.5005C15.1987 19.4986 15.1334 19.5096 15.0721 19.533C15.0107 19.5563 14.9546 19.5915 14.9069 19.6366C14.8591 19.6816 14.8207 19.7356 14.7939 19.7955L10.2939 29.837C10.267 29.8969 10.2522 29.9615 10.2503 30.0271C10.2484 30.0927 10.2594 30.158 10.2828 30.2194C10.3061 30.2807 10.3413 30.3369 10.3864 30.3846C10.4315 30.4323 10.4855 30.4707 10.5454 30.4975Z" fill="white"/>
</svg>
