<svg width="35" height="35" viewBox="0 0 35 35" fill="none" xmlns="http://www.w3.org/2000/svg">
<path d="M32.3203 29.75L29.5859 27.0156C29.0938 26.5234 28.3281 26.4141 27.7266 26.6875L27.0156 25.9766C27.8906 24.9375 28.4375 23.5703 28.4375 22.1484C28.4375 18.8125 25.7578 16.1328 22.4219 16.1328C21.9844 16.1328 21.5469 16.1875 21.1641 16.2969C19.1953 13.4531 16.0234 11.7578 12.5781 11.7578C6.83594 11.7578 2.1875 16.4062 2.1875 22.1484C2.1875 27.8906 6.83594 32.5391 12.5781 32.5391C16.0234 32.5391 19.1953 30.8438 21.1641 28C21.6016 28.1094 21.9844 28.1641 22.4219 28.1641C23.8984 28.1641 25.2109 27.6172 26.25 26.7422L26.9609 27.4531C26.6875 28.0547 26.7969 28.8203 27.2891 29.3125L30.0234 32.0469C30.3516 32.375 30.7891 32.5391 31.1719 32.5391C31.6094 32.5391 31.9922 32.375 32.3203 32.0469C32.9766 31.4453 32.9766 30.4062 32.3203 29.75ZM3.33594 22.6953H7.16406C7.21875 23.8438 7.32812 24.8828 7.49219 25.9219C6.45312 26.1953 5.46875 26.5234 4.64844 26.9062C3.88281 25.6484 3.39062 24.2266 3.33594 22.6953ZM4.70313 17.2812C5.57813 17.6641 6.50781 17.9922 7.54688 18.2656C7.32812 19.3047 7.21875 20.4531 7.16406 21.6562H3.33594C3.39062 20.0156 3.88281 18.5391 4.70313 17.2812ZM16.4609 21.6016H13.125V18.8125C14.3281 18.7578 15.4766 18.6484 16.5703 18.4844C16.6797 18.9766 16.7344 19.4688 16.7891 19.9609C16.625 20.4531 16.4609 21 16.4609 21.6016ZM13.125 17.7188V12.9609C14.4375 13.3438 15.6406 14.9844 16.2969 17.4453C15.3125 17.5547 14.2188 17.6641 13.125 17.7188ZM12.0312 12.9609V17.7188C10.9375 17.6641 9.84375 17.6094 8.85938 17.3906C9.51563 15.0391 10.7188 13.2891 12.0312 12.9609ZM12.0312 18.8125V21.6016H8.20312C8.25781 20.5078 8.36719 19.4141 8.58594 18.4844C9.67969 18.6484 10.8281 18.7578 12.0312 18.8125ZM8.20312 22.6953H12.0312V25.3203C10.8281 25.375 9.67969 25.4844 8.53125 25.7031C8.36719 24.7188 8.25781 23.7344 8.20312 22.6953ZM12.0312 26.4141V31.3906C10.6641 31.0078 9.46094 29.2031 8.80469 26.7422C9.84375 26.5234 10.9375 26.4141 12.0312 26.4141ZM13.125 31.3359V26.3594C14.2188 26.4141 15.3125 26.5234 16.3516 26.6875C15.6953 29.2578 14.4922 31.0078 13.125 31.3359ZM13.125 25.3203V22.6953H16.4609C16.5156 23.2969 16.625 23.8438 16.8438 24.3359C16.7891 24.7734 16.7344 25.2109 16.625 25.6484C15.4766 25.4844 14.3281 25.3203 13.125 25.3203ZM17.7188 25.8672L17.7734 25.9219C17.7188 25.9219 17.7188 25.9219 17.7188 25.8672C17.6641 25.8672 17.6641 25.8672 17.7188 25.8672ZM17.7188 18.4297C17.7188 18.375 17.7188 18.2656 17.6641 18.2109C17.7734 18.2109 17.8281 18.1563 17.9375 18.1563C17.8281 18.2656 17.7734 18.3203 17.7188 18.4297ZM19.8516 16.3516C19.0859 16.6797 18.2656 16.9531 17.3906 17.1719C16.9531 15.5859 16.2969 14.2734 15.4766 13.3437C17.1719 13.8906 18.7031 14.9297 19.8516 16.3516ZM9.67969 13.3437C8.85938 14.2734 8.20312 15.5859 7.76562 17.1719C6.89062 16.9531 6.07031 16.6797 5.35938 16.3516C6.45312 14.9844 7.92969 13.8906 9.67969 13.3437ZM5.25 27.8359C6.01563 27.5078 6.83594 27.2344 7.76562 26.9609C8.20312 28.6016 8.85937 29.9688 9.73437 30.9531C7.875 30.3516 6.34375 29.2578 5.25 27.8359ZM15.4766 30.9531C16.2969 29.9688 17.0078 28.6016 17.4453 26.9609C18.3203 27.1797 19.1953 27.4531 19.9609 27.8359C18.8125 29.3125 17.2266 30.4062 15.4766 30.9531ZM17.5 22.1484C17.5 19.4141 19.6875 17.2266 22.4219 17.2266C25.1562 17.2266 27.3438 19.4141 27.3438 22.1484C27.3438 24.8828 25.1562 27.0703 22.4219 27.0703C19.6875 27.0703 17.5 24.8828 17.5 22.1484ZM31.5547 31.2812C31.3359 31.5 31.0078 31.5 30.7891 31.2812L28.0547 28.5469C27.8359 28.3281 27.8359 28 28.0547 27.7812C28.1641 27.6719 28.3281 27.6172 28.4375 27.6172C28.6016 27.6172 28.7109 27.6719 28.8203 27.7812L31.5547 30.5156C31.7734 30.7344 31.7734 31.0625 31.5547 31.2812Z" fill="white"/>
<path d="M25.7031 21.6016C25.375 21.6016 25.1562 21.8203 25.1562 22.1484C25.1562 23.6797 23.9531 24.8828 22.4219 24.8828C22.0938 24.8828 21.875 25.1016 21.875 25.4297C21.875 25.7578 22.0938 25.9766 22.4219 25.9766C24.5547 25.9766 26.25 24.2812 26.25 22.1484C26.25 21.8203 26.0312 21.6016 25.7031 21.6016ZM14.7656 5.74219H26.25C26.5781 5.74219 26.7969 5.52344 26.7969 5.19531C26.7969 4.86719 26.5781 4.64844 26.25 4.64844H14.7656C14.4375 4.64844 14.2188 4.86719 14.2188 5.19531C14.2188 5.52344 14.4375 5.74219 14.7656 5.74219ZM29.5312 5.74219H30.0781C30.4062 5.74219 30.625 5.52344 30.625 5.19531C30.625 4.86719 30.4062 4.64844 30.0781 4.64844H29.5312C29.2031 4.64844 28.9844 4.86719 28.9844 5.19531C28.9844 5.52344 29.2031 5.74219 29.5312 5.74219ZM27.8906 5.74219C28.0547 5.74219 28.1641 5.6875 28.2734 5.57812C28.3828 5.46875 28.4375 5.35938 28.4375 5.19531C28.4375 5.03125 28.3828 4.92188 28.2734 4.8125C28.0547 4.59375 27.7266 4.59375 27.5078 4.8125C27.3984 4.92188 27.3438 5.03125 27.3438 5.19531C27.3438 5.35938 27.3984 5.46875 27.5078 5.57812C27.6172 5.6875 27.7266 5.74219 27.8906 5.74219Z" fill="white"/>
<path d="M7.65625 11.2109C7.98438 11.2109 8.20312 10.9922 8.20312 10.6641V6.83594C8.20312 5.85156 9.02344 5.74219 9.29688 5.74219H12.0859C12.3594 7 13.4531 7.92969 14.7656 7.92969H18.5938V10.6641C18.5938 10.8828 18.7031 11.1016 18.9219 11.1562C18.9766 11.2109 19.0859 11.2109 19.1406 11.2109C19.3047 11.2109 19.4141 11.1562 19.5234 11.0469L22.6406 7.92969H28.4375V10.6641C28.4375 11.6484 27.6172 11.7578 27.3438 11.7578H24.0625C23.7344 11.7578 23.5156 11.9766 23.5156 12.3047C23.5156 12.6328 23.7344 12.8516 24.0625 12.8516H27.3438C28.2188 12.8516 29.5312 12.25 29.5312 10.6641V7.92969H30.0781C31.6094 7.92969 32.8125 6.72656 32.8125 5.19531C32.8125 3.66406 31.6094 2.46094 30.0781 2.46094H14.7656C13.4531 2.46094 12.3594 3.39062 12.0859 4.64844H9.29688C8.42188 4.64844 7.10938 5.25 7.10938 6.83594V10.6641C7.10938 10.9922 7.32812 11.2109 7.65625 11.2109ZM14.7656 3.55469H30.0781C31.0078 3.55469 31.7188 4.26562 31.7188 5.19531C31.7188 6.125 31.0078 6.83594 30.0781 6.83594H22.4219C22.2578 6.83594 22.1484 6.89062 22.0391 7L19.6875 9.35156V7.38281C19.6875 7.05469 19.4688 6.83594 19.1406 6.83594H14.7656C13.8359 6.83594 13.125 6.125 13.125 5.19531C13.125 4.26562 13.8359 3.55469 14.7656 3.55469Z" fill="white"/>
</svg>
