<svg width="35" height="35" viewBox="0 0 35 35" fill="none" xmlns="http://www.w3.org/2000/svg">
<g clip-path="url(#clip0_418_564)">
<path d="M32.2656 3.28125H2.73438C2.00917 3.28125 1.31367 3.56934 0.80088 4.08213C0.288085 4.59492 0 5.29042 0 6.01562L0 25.7031C0 26.4283 0.288085 27.1238 0.80088 27.6366C1.31367 28.1494 2.00917 28.4375 2.73438 28.4375H14.1859C14.1117 29.2752 13.8621 30.088 13.4531 30.8229C13.0442 31.5578 12.4852 32.1984 11.8125 32.7031L10.0625 34.0156C9.97109 34.0852 9.90393 34.1819 9.87056 34.2918C9.83718 34.4018 9.83928 34.5194 9.87656 34.6281C9.91089 34.7371 9.97943 34.8322 10.072 34.8992C10.1646 34.9662 10.2763 35.0015 10.3906 35H24.6094C24.7237 35.0015 24.8354 34.9662 24.928 34.8992C25.0206 34.8322 25.0891 34.7371 25.1234 34.6281C25.1607 34.5194 25.1628 34.4018 25.1294 34.2918C25.0961 34.1819 25.0289 34.0852 24.9375 34.0156L23.1875 32.7031C22.5148 32.1984 21.9558 31.5578 21.5469 30.8229C21.1379 30.088 20.8883 29.2752 20.8141 28.4375H32.2656C32.9908 28.4375 33.6863 28.1494 34.1991 27.6366C34.7119 27.1238 35 26.4283 35 25.7031V6.01562C35 5.29042 34.7119 4.59492 34.1991 4.08213C33.6863 3.56934 32.9908 3.28125 32.2656 3.28125ZM22.5312 33.5781L22.9688 33.9062H12.0312L12.4688 33.5781C13.2761 32.9697 13.9451 32.1969 14.4315 31.3107C14.918 30.4246 15.2108 29.4452 15.2906 28.4375H19.7094C19.7892 29.4452 20.082 30.4246 20.5685 31.3107C21.0549 32.1969 21.7239 32.9697 22.5312 33.5781ZM33.9062 25.7031C33.9062 26.1382 33.7334 26.5555 33.4257 26.8632C33.118 27.1709 32.7007 27.3438 32.2656 27.3438H2.73438C2.29925 27.3438 1.88195 27.1709 1.57428 26.8632C1.2666 26.5555 1.09375 26.1382 1.09375 25.7031V24.0625H33.9062V25.7031ZM4.375 22.9688V18.5938H12.0312V22.9688H4.375ZM16.4062 22.9688V18.5938H30.625V22.9688H16.4062ZM33.9062 22.9688H31.7188V18.0469C31.7188 17.9018 31.6611 17.7627 31.5586 17.6602C31.456 17.5576 31.3169 17.5 31.1719 17.5H15.8594C15.7143 17.5 15.5752 17.5576 15.4727 17.6602C15.3701 17.7627 15.3125 17.9018 15.3125 18.0469V22.9688H13.125V18.0469C13.125 17.9018 13.0674 17.7627 12.9648 17.6602C12.8623 17.5576 12.7232 17.5 12.5781 17.5H3.82812C3.68308 17.5 3.54399 17.5576 3.44143 17.6602C3.33887 17.7627 3.28125 17.9018 3.28125 18.0469V22.9688H1.09375V6.01562C1.09375 5.5805 1.2666 5.1632 1.57428 4.85553C1.88195 4.54785 2.29925 4.375 2.73438 4.375H32.2656C32.7007 4.375 33.118 4.54785 33.4257 4.85553C33.7334 5.1632 33.9062 5.5805 33.9062 6.01562V22.9688ZM31.1719 6.5625H3.82812C3.68308 6.5625 3.54399 6.62012 3.44143 6.72268C3.33887 6.82524 3.28125 6.96433 3.28125 7.10938V14.7656C3.28125 14.9107 3.33887 15.0498 3.44143 15.1523C3.54399 15.2549 3.68308 15.3125 3.82812 15.3125H31.1719C31.3169 15.3125 31.456 15.2549 31.5586 15.1523C31.6611 15.0498 31.7188 14.9107 31.7188 14.7656V7.10938C31.7188 6.96433 31.6611 6.82524 31.5586 6.72268C31.456 6.62012 31.3169 6.5625 31.1719 6.5625ZM27.1895 7.65625L17.5 10.3698L7.80828 7.65625H27.1895ZM4.375 7.83016L15.4711 10.9375L4.375 14.0448V7.83016ZM7.80937 14.2188L17.5 11.5052L27.1906 14.2188H7.80937ZM30.625 14.0448L19.5278 10.9375L30.625 7.83016V14.0448ZM27.8906 20.2344H19.1406C18.9956 20.2344 18.8565 20.292 18.7539 20.3946C18.6514 20.4971 18.5938 20.6362 18.5938 20.7812C18.5938 20.9263 18.6514 21.0654 18.7539 21.1679C18.8565 21.2705 18.9956 21.3281 19.1406 21.3281H27.8906C28.0357 21.3281 28.1748 21.2705 28.2773 21.1679C28.3799 21.0654 28.4375 20.9263 28.4375 20.7812C28.4375 20.6362 28.3799 20.4971 28.2773 20.3946C28.1748 20.292 28.0357 20.2344 27.8906 20.2344ZM9.29688 20.2344H7.10938C6.96433 20.2344 6.82523 20.292 6.72268 20.3946C6.62012 20.4971 6.5625 20.6362 6.5625 20.7812C6.5625 20.9263 6.62012 21.0654 6.72268 21.1679C6.82523 21.2705 6.96433 21.3281 7.10938 21.3281H9.29688C9.44192 21.3281 9.58102 21.2705 9.68357 21.1679C9.78613 21.0654 9.84375 20.9263 9.84375 20.7812C9.84375 20.6362 9.78613 20.4971 9.68357 20.3946C9.58102 20.292 9.44192 20.2344 9.29688 20.2344Z" fill="white"/>
</g>
<defs>
<clipPath id="clip0_418_564">
<rect width="35" height="35" fill="white"/>
</clipPath>
</defs>
</svg>
