<svg width="35" height="35" viewBox="0 0 35 35" fill="none" xmlns="http://www.w3.org/2000/svg">
<path d="M4.78512 2.18748C4.67111 2.22476 4.57252 2.29848 4.50454 2.3973C4.43655 2.49612 4.40293 2.61456 4.40887 2.73436V27.8906C4.40887 28.0356 4.46649 28.1747 4.56905 28.2773C4.67161 28.3799 4.81071 28.4375 4.95575 28.4375H26.5923L29.8736 31.7187C29.9954 31.8471 30.1419 31.9495 30.3042 32.02C30.4666 32.0905 30.6414 32.1276 30.8184 32.129C30.9954 32.1305 31.1708 32.0962 31.3343 32.0284C31.4978 31.9606 31.6459 31.8605 31.7698 31.7342C31.8938 31.6079 31.9911 31.4579 32.0558 31.2932C32.1205 31.1285 32.1515 30.9525 32.1467 30.7756C32.1419 30.5986 32.1016 30.4245 32.028 30.2635C31.9545 30.1025 31.8493 29.958 31.7187 29.8386L30.3176 28.4036C30.4195 28.3623 30.5065 28.2912 30.5674 28.1997C30.6282 28.1082 30.6601 28.0005 30.6589 27.8906V2.73436C30.6589 2.58932 30.6013 2.45022 30.4987 2.34766C30.3961 2.2451 30.257 2.18748 30.112 2.18748H4.95575C4.89922 2.17855 4.84165 2.17855 4.78512 2.18748ZM5.50262 3.28123H29.5651V6.56248H5.50262V3.28123ZM7.14325 4.37498C6.99821 4.37498 6.85911 4.4326 6.75655 4.53516C6.65399 4.63772 6.59637 4.77682 6.59637 4.92186C6.59637 5.0669 6.65399 5.206 6.75655 5.30856C6.85911 5.41111 6.99821 5.46873 7.14325 5.46873C7.28829 5.46873 7.42739 5.41111 7.52995 5.30856C7.63251 5.206 7.69012 5.0669 7.69012 4.92186C7.69012 4.77682 7.63251 4.63772 7.52995 4.53516C7.42739 4.4326 7.28829 4.37498 7.14325 4.37498ZM9.33075 4.37498C9.18571 4.37498 9.04661 4.4326 8.94405 4.53516C8.84149 4.63772 8.78387 4.77682 8.78387 4.92186C8.78387 5.0669 8.84149 5.206 8.94405 5.30856C9.04661 5.41111 9.18571 5.46873 9.33075 5.46873C9.47579 5.46873 9.61489 5.41111 9.71745 5.30856C9.82001 5.206 9.87762 5.0669 9.87762 4.92186C9.87762 4.77682 9.82001 4.63772 9.71745 4.53516C9.61489 4.4326 9.47579 4.37498 9.33075 4.37498ZM11.5182 4.37498C11.3732 4.37498 11.2341 4.4326 11.1315 4.53516C11.029 4.63772 10.9714 4.77682 10.9714 4.92186C10.9714 5.0669 11.029 5.206 11.1315 5.30856C11.2341 5.41111 11.3732 5.46873 11.5182 5.46873C11.6633 5.46873 11.8024 5.41111 11.9049 5.30856C12.0075 5.206 12.0651 5.0669 12.0651 4.92186C12.0651 4.77682 12.0075 4.63772 11.9049 4.53516C11.8024 4.4326 11.6633 4.37498 11.5182 4.37498ZM5.50262 7.65623H29.5651V27.3437H29.2239L26.5573 24.6772C26.3882 24.5032 26.1743 24.3792 25.9393 24.319C25.7042 24.2588 25.4571 24.2647 25.2251 24.3359L23.6173 22.7631C25.7983 20.1764 25.6845 16.3537 23.2761 13.9453C20.732 11.4012 16.5889 11.4045 14.0142 13.9792C11.4384 16.555 11.4012 20.732 13.9453 23.2761C14.0328 23.3647 14.1268 23.4336 14.2187 23.5156H12.0651C12.0086 23.5067 11.951 23.5067 11.8945 23.5156C11.7805 23.5529 11.6819 23.6266 11.6139 23.7254C11.5459 23.8242 11.5123 23.9427 11.5182 24.0625V26.25C11.5182 26.395 11.5759 26.5341 11.6784 26.6367C11.781 26.7392 11.9201 26.7969 12.0651 26.7969H14.2526C14.3977 26.7969 14.5368 26.7392 14.6393 26.6367C14.7419 26.5341 14.7995 26.395 14.7995 26.25V24.0625C14.7898 24.0387 14.7785 24.0157 14.7656 23.9936C15.1211 24.2451 15.5039 24.4387 15.8932 24.6094V26.25C15.8932 26.395 15.9509 26.5341 16.0534 26.6367C16.156 26.7392 16.2951 26.7969 16.4401 26.7969H18.6276C18.7727 26.7969 18.9118 26.7392 19.0143 26.6367C19.1169 26.5341 19.1745 26.395 19.1745 26.25V25.1223C19.5475 25.084 19.904 24.9845 20.2682 24.8828V26.25C20.2682 26.395 20.3259 26.5341 20.4284 26.6367C20.531 26.7392 20.6701 26.7969 20.8151 26.7969H23.0026C23.1477 26.7969 23.2868 26.7392 23.3893 26.6367C23.4919 26.5341 23.5495 26.395 23.5495 26.25V24.302L24.3698 25.1223C24.2804 25.3607 24.262 25.6199 24.3167 25.8685C24.3714 26.1172 24.497 26.3446 24.6782 26.5234L25.4986 27.3437H5.50153V7.65623H5.50262ZM18.6626 13.125C19.3782 13.1186 20.088 13.2543 20.7508 13.5243C21.4136 13.7943 22.0161 14.1931 22.5236 14.6978C24.1707 16.3428 24.489 18.7961 23.5495 20.8151V18.5937C23.5495 18.4487 23.4919 18.3096 23.3893 18.207C23.2868 18.1045 23.1477 18.0469 23.0026 18.0469H20.8151C20.7586 18.0379 20.701 18.0379 20.6445 18.0469C20.5305 18.0841 20.4319 18.1579 20.3639 18.2567C20.2959 18.3555 20.2623 18.4739 20.2682 18.5937V23.7551C19.9073 23.8787 19.5486 23.9476 19.1745 23.9936V16.4062C19.1745 16.2612 19.1169 16.1221 19.0143 16.0195C18.9118 15.917 18.7727 15.8594 18.6276 15.8594H16.4401C16.3836 15.8504 16.326 15.8504 16.2695 15.8594C16.1555 15.8966 16.0569 15.9704 15.9889 16.0692C15.9209 16.168 15.8873 16.2864 15.8932 16.4062V23.3789C15.47 23.1437 15.0565 22.8845 14.6967 22.5247C12.5781 20.405 12.6361 16.929 14.7995 14.7656C15.8823 13.6828 17.2637 13.1315 18.6615 13.125H18.6626ZM16.987 16.9531H18.0807V24.0286C17.71 23.9984 17.3434 23.9295 16.987 23.823V16.9531ZM21.362 19.1406H22.4557V22.4219C22.1276 22.75 21.7393 23.0125 21.362 23.2422V19.1406ZM7.5195 20.2344C7.40549 20.2716 7.3069 20.3454 7.23891 20.4442C7.17092 20.543 7.13731 20.6614 7.14325 20.7812V26.25C7.14325 26.395 7.20087 26.5341 7.30343 26.6367C7.40598 26.7392 7.54508 26.7969 7.69012 26.7969H9.87762C10.0227 26.7969 10.1618 26.7392 10.2643 26.6367C10.3669 26.5341 10.4245 26.395 10.4245 26.25V20.7812C10.4245 20.6362 10.3669 20.4971 10.2643 20.3945C10.1618 20.292 10.0227 20.2344 9.87762 20.2344H7.69012C7.6336 20.2254 7.57602 20.2254 7.5195 20.2344ZM8.237 21.3281H9.33075V25.7031H8.237V21.3281ZM22.4557 23.8579V25.7031H21.362V24.5065C21.7448 24.325 22.1068 24.115 22.4557 23.8579ZM12.612 24.6094H13.7057V25.7031H12.612V24.6094ZM16.987 24.9856C17.3501 25.072 17.7089 25.0994 18.0807 25.1223V25.7031H16.987V24.9856Z" fill="white"/>
</svg>
