<svg width="35" height="35" viewBox="0 0 35 35" fill="none" xmlns="http://www.w3.org/2000/svg">
<g clip-path="url(#clip0_418_546)">
<path d="M25.7031 10.9375H28.9844C29.1294 10.9375 29.2685 10.8799 29.3711 10.7773C29.4736 10.6748 29.5312 10.5357 29.5312 10.3906V4.92188C29.5312 4.77683 29.4736 4.63774 29.3711 4.53518C29.2685 4.43262 29.1294 4.375 28.9844 4.375H6.01562C5.87058 4.375 5.73149 4.43262 5.62893 4.53518C5.52637 4.63774 5.46875 4.77683 5.46875 4.92188V10.3906C5.46875 10.5357 5.52637 10.6748 5.62893 10.7773C5.73149 10.8799 5.87058 10.9375 6.01562 10.9375H9.29688C9.44192 10.9375 9.58102 10.8799 9.68357 10.7773C9.78613 10.6748 9.84375 10.5357 9.84375 10.3906V8.75H15.3125V26.25H11.4844C11.3393 26.25 11.2002 26.3076 11.0977 26.4102C10.9951 26.5127 10.9375 26.6518 10.9375 26.7969V30.0781C10.9375 30.2232 10.9951 30.3623 11.0977 30.4648C11.2002 30.5674 11.3393 30.625 11.4844 30.625H23.5156C23.6607 30.625 23.7998 30.5674 23.9023 30.4648C24.0049 30.3623 24.0625 30.2232 24.0625 30.0781V26.7969C24.0625 26.6518 24.0049 26.5127 23.9023 26.4102C23.7998 26.3076 23.6607 26.25 23.5156 26.25H19.6875V8.75H25.1562V10.3906C25.1562 10.5357 25.2139 10.6748 25.3164 10.7773C25.419 10.8799 25.5581 10.9375 25.7031 10.9375ZM19.1406 7.65625C18.9956 7.65625 18.8565 7.71387 18.7539 7.81643C18.6514 7.91899 18.5938 8.05808 18.5938 8.20312V26.7969C18.5938 26.9419 18.6514 27.081 18.7539 27.1836C18.8565 27.2861 18.9956 27.3438 19.1406 27.3438H22.9688V29.5312H12.0312V27.3438H15.8594C16.0044 27.3438 16.1435 27.2861 16.2461 27.1836C16.3486 27.081 16.4062 26.9419 16.4062 26.7969V8.20312C16.4062 8.05808 16.3486 7.91899 16.2461 7.81643C16.1435 7.71387 16.0044 7.65625 15.8594 7.65625H9.29688C9.15183 7.65625 9.01273 7.71387 8.91018 7.81643C8.80762 7.91899 8.75 8.05808 8.75 8.20312V9.84375H6.5625V5.46875H28.4375V9.84375H26.25V8.20312C26.25 8.05808 26.1924 7.91899 26.0898 7.81643C25.9873 7.71387 25.8482 7.65625 25.7031 7.65625H19.1406ZM0.546875 13.2814C0.691915 13.2814 0.831015 13.2238 0.933574 13.1212C1.03613 13.0187 1.09375 12.8796 1.09375 12.7345V9.45328C1.09375 9.30824 1.03613 9.16914 0.933574 9.06658C0.831015 8.96402 0.691915 8.90641 0.546875 8.90641C0.401835 8.90641 0.262735 8.96402 0.160176 9.06658C0.057617 9.16914 0 9.30824 0 9.45328L0 12.7345C0 12.8796 0.057617 13.0187 0.160176 13.1212C0.262735 13.2238 0.401835 13.2814 0.546875 13.2814ZM0.546875 6.71891C0.691915 6.71891 0.831015 6.66129 0.933574 6.55873C1.03613 6.45617 1.09375 6.31707 1.09375 6.17203V2.89078C1.09375 2.74574 1.03613 2.60664 0.933574 2.50408C0.831015 2.40152 0.691915 2.34391 0.546875 2.34391C0.401835 2.34391 0.262735 2.40152 0.160176 2.50408C0.057617 2.60664 0 2.74574 0 2.89078L0 6.17203C0 6.31707 0.057617 6.45617 0.160176 6.55873C0.262735 6.66129 0.401835 6.71891 0.546875 6.71891ZM0.546875 26.4064C0.691915 26.4064 0.831015 26.3488 0.933574 26.2462C1.03613 26.1437 1.09375 26.0046 1.09375 25.8595V22.5783C1.09375 22.4332 1.03613 22.2941 0.933574 22.1916C0.831015 22.089 0.691915 22.0314 0.546875 22.0314C0.401835 22.0314 0.262735 22.089 0.160176 22.1916C0.057617 22.2941 0 22.4332 0 22.5783L0 25.8595C0 26.0046 0.057617 26.1437 0.160176 26.2462C0.262735 26.3488 0.401835 26.4064 0.546875 26.4064ZM0.546875 19.8439C0.691915 19.8439 0.831015 19.7863 0.933574 19.6837C1.03613 19.5812 1.09375 19.4421 1.09375 19.297V16.0158C1.09375 15.8707 1.03613 15.7316 0.933574 15.6291C0.831015 15.5265 0.691915 15.4689 0.546875 15.4689C0.401835 15.4689 0.262735 15.5265 0.160176 15.6291C0.057617 15.7316 0 15.8707 0 16.0158L0 19.297C0 19.4421 0.057617 19.5812 0.160176 19.6837C0.262735 19.7863 0.401835 19.8439 0.546875 19.8439ZM0.546875 28.5939C0.401835 28.5939 0.262735 28.6515 0.160176 28.7541C0.057617 28.8566 0 28.9957 0 29.1408L0 32.2547C0 32.3236 0 32.3903 0 32.4559C0.00863961 32.595 0.0700489 32.7256 0.171687 32.8209C0.273324 32.9162 0.407523 32.9692 0.546875 32.9689H0.585156C0.729721 32.9591 0.864478 32.8923 0.959835 32.7832C1.05519 32.6741 1.10336 32.5316 1.09375 32.387V29.1397C1.09346 28.9948 1.03572 28.856 0.933188 28.7537C0.83066 28.6514 0.691726 28.5939 0.546875 28.5939ZM28.6727 1.09375H31.9539C32.0989 1.09375 32.238 1.03613 32.3406 0.933574C32.4432 0.831015 32.5008 0.691915 32.5008 0.546875C32.5008 0.401835 32.4432 0.262735 32.3406 0.160176C32.238 0.057617 32.0989 0 31.9539 0L28.6727 0C28.5276 0 28.3885 0.057617 28.286 0.160176C28.1834 0.262735 28.1258 0.401835 28.1258 0.546875C28.1258 0.691915 28.1834 0.831015 28.286 0.933574C28.3885 1.03613 28.5276 1.09375 28.6727 1.09375ZM22.1102 1.09375H25.3914C25.5364 1.09375 25.6755 1.03613 25.7781 0.933574C25.8807 0.831015 25.9383 0.691915 25.9383 0.546875C25.9383 0.401835 25.8807 0.262735 25.7781 0.160176C25.6755 0.057617 25.5364 0 25.3914 0L22.1102 0C21.9651 0 21.826 0.057617 21.7235 0.160176C21.6209 0.262735 21.5633 0.401835 21.5633 0.546875C21.5633 0.691915 21.6209 0.831015 21.7235 0.933574C21.826 1.03613 21.9651 1.09375 22.1102 1.09375ZM8.98516 1.09375H12.2664C12.4114 1.09375 12.5505 1.03613 12.6531 0.933574C12.7557 0.831015 12.8133 0.691915 12.8133 0.546875C12.8133 0.401835 12.7557 0.262735 12.6531 0.160176C12.5505 0.057617 12.4114 0 12.2664 0L8.98516 0C8.84012 0 8.70102 0.057617 8.59846 0.160176C8.4959 0.262735 8.43828 0.401835 8.43828 0.546875C8.43828 0.691915 8.4959 0.831015 8.59846 0.933574C8.70102 1.03613 8.84012 1.09375 8.98516 1.09375ZM15.5477 1.09375H18.8289C18.9739 1.09375 19.113 1.03613 19.2156 0.933574C19.3182 0.831015 19.3758 0.691915 19.3758 0.546875C19.3758 0.401835 19.3182 0.262735 19.2156 0.160176C19.113 0.057617 18.9739 0 18.8289 0L15.5477 0C15.4026 0 15.2635 0.057617 15.161 0.160176C15.0584 0.262735 15.0008 0.401835 15.0008 0.546875C15.0008 0.691915 15.0584 0.831015 15.161 0.933574C15.2635 1.03613 15.4026 1.09375 15.5477 1.09375ZM19.1406 33.9062H15.8594C15.7143 33.9062 15.5752 33.9639 15.4727 34.0664C15.3701 34.169 15.3125 34.3081 15.3125 34.4531C15.3125 34.5982 15.3701 34.7373 15.4727 34.8398C15.5752 34.9424 15.7143 35 15.8594 35H19.1406C19.2857 35 19.4248 34.9424 19.5273 34.8398C19.6299 34.7373 19.6875 34.5982 19.6875 34.4531C19.6875 34.3081 19.6299 34.169 19.5273 34.0664C19.4248 33.9639 19.2857 33.9062 19.1406 33.9062ZM34.4531 27.9694C34.3081 27.9694 34.169 28.027 34.0664 28.1296C33.9639 28.2321 33.9062 28.3712 33.9062 28.5163V31.7975C33.9062 31.9425 33.9639 32.0816 34.0664 32.1842C34.169 32.2868 34.3081 32.3444 34.4531 32.3444C34.5982 32.3444 34.7373 32.2868 34.8398 32.1842C34.9424 32.0816 35 31.9425 35 31.7975V28.5163C35 28.3712 34.9424 28.2321 34.8398 28.1296C34.7373 28.027 34.5982 27.9694 34.4531 27.9694ZM34.4531 14.8444C34.3081 14.8444 34.169 14.902 34.0664 15.0046C33.9639 15.1071 33.9062 15.2462 33.9062 15.3912V18.6725C33.9062 18.8175 33.9639 18.9566 34.0664 19.0592C34.169 19.1618 34.3081 19.2194 34.4531 19.2194C34.5982 19.2194 34.7373 19.1618 34.8398 19.0592C34.9424 18.9566 35 18.8175 35 18.6725V15.3912C35 15.2462 34.9424 15.1071 34.8398 15.0046C34.7373 14.902 34.5982 14.8444 34.4531 14.8444ZM2.50031 1.11016C2.57578 1.09375 2.65344 1.10359 2.73438 1.09375H5.70391C5.84895 1.09375 5.98805 1.03613 6.09061 0.933574C6.19316 0.831015 6.25078 0.691915 6.25078 0.546875C6.25078 0.401835 6.19316 0.262735 6.09061 0.160176C5.98805 0.057617 5.84895 0 5.70391 0L2.73438 0C2.57141 0.0153125 2.47078 0.00875 2.34391 0.02625C2.20081 0.0472666 2.07187 0.12411 1.9853 0.239964C1.89873 0.355818 1.86157 0.501248 1.88196 0.64443C1.90236 0.787613 1.97864 0.916887 2.09411 1.00396C2.20959 1.09104 2.35485 1.12883 2.49812 1.10906L2.50031 1.11016ZM34.4531 8.28188C34.3081 8.28188 34.169 8.33949 34.0664 8.44205C33.9639 8.54461 33.9062 8.68371 33.9062 8.82875V12.11C33.9062 12.255 33.9639 12.3941 34.0664 12.4967C34.169 12.5993 34.3081 12.6569 34.4531 12.6569C34.5982 12.6569 34.7373 12.5993 34.8398 12.4967C34.9424 12.3941 35 12.255 35 12.11V8.82875C35 8.68371 34.9424 8.54461 34.8398 8.44205C34.7373 8.33949 34.5982 8.28188 34.4531 8.28188V8.28188ZM34.9377 2.15688C34.9073 2.01488 34.8219 1.89074 34.7 1.81177C34.5782 1.7328 34.43 1.70547 34.288 1.73578C34.146 1.76609 34.0218 1.85157 33.9429 1.97341C33.8639 2.09525 33.8366 2.24347 33.8669 2.38547C33.8916 2.50017 33.9048 2.61705 33.9062 2.73438V5.5475C33.9062 5.69254 33.9639 5.83164 34.0664 5.9342C34.169 6.03676 34.3081 6.09438 34.4531 6.09438C34.5982 6.09438 34.7373 6.03676 34.8398 5.9342C34.9424 5.83164 35 5.69254 35 5.5475V2.73438C34.9989 2.5399 34.978 2.34604 34.9377 2.15578V2.15688ZM34.4531 21.4069C34.3081 21.4069 34.169 21.4645 34.0664 21.5671C33.9639 21.6696 33.9062 21.8087 33.9062 21.9538V25.235C33.9062 25.38 33.9639 25.5191 34.0664 25.6217C34.169 25.7243 34.3081 25.7819 34.4531 25.7819C34.5982 25.7819 34.7373 25.7243 34.8398 25.6217C34.9424 25.5191 35 25.38 35 25.235V21.9538C35 21.8087 34.9424 21.6696 34.8398 21.5671C34.7373 21.4645 34.5982 21.4069 34.4531 21.4069ZM6.01562 33.9062H2.73438C2.58933 33.9062 2.45024 33.9639 2.34768 34.0664C2.24512 34.169 2.1875 34.3081 2.1875 34.4531C2.1875 34.5982 2.24512 34.7373 2.34768 34.8398C2.45024 34.9424 2.58933 35 2.73438 35H6.01562C6.16067 35 6.29976 34.9424 6.40232 34.8398C6.50488 34.7373 6.5625 34.5982 6.5625 34.4531C6.5625 34.3081 6.50488 34.169 6.40232 34.0664C6.29976 33.9639 6.16067 33.9062 6.01562 33.9062ZM12.5781 33.9062H9.29688C9.15183 33.9062 9.01273 33.9639 8.91018 34.0664C8.80762 34.169 8.75 34.3081 8.75 34.4531C8.75 34.5982 8.80762 34.7373 8.91018 34.8398C9.01273 34.9424 9.15183 35 9.29688 35H12.5781C12.7232 35 12.8623 34.9424 12.9648 34.8398C13.0674 34.7373 13.125 34.5982 13.125 34.4531C13.125 34.3081 13.0674 34.169 12.9648 34.0664C12.8623 33.9639 12.7232 33.9062 12.5781 33.9062ZM32.7283 33.8406C32.5781 33.8848 32.4222 33.9069 32.2656 33.9062H28.9844C28.8393 33.9062 28.7002 33.9639 28.5977 34.0664C28.4951 34.169 28.4375 34.3081 28.4375 34.4531C28.4375 34.5982 28.4951 34.7373 28.5977 34.8398C28.7002 34.9424 28.8393 35 28.9844 35H32.2656C32.5247 35 32.7825 34.9632 33.0313 34.8906C33.1705 34.8499 33.2878 34.7555 33.3575 34.6282C33.4271 34.5009 33.4433 34.3512 33.4026 34.212C33.3618 34.0727 33.2674 33.9554 33.1401 33.8857C33.0129 33.8161 32.8631 33.7999 32.7239 33.8406H32.7283ZM25.7031 33.9062H22.4219C22.2768 33.9062 22.1377 33.9639 22.0352 34.0664C21.9326 34.169 21.875 34.3081 21.875 34.4531C21.875 34.5982 21.9326 34.7373 22.0352 34.8398C22.1377 34.9424 22.2768 35 22.4219 35H25.7031C25.8482 35 25.9873 34.9424 26.0898 34.8398C26.1924 34.7373 26.25 34.5982 26.25 34.4531C26.25 34.3081 26.1924 34.169 26.0898 34.0664C25.9873 33.9639 25.8482 33.9062 25.7031 33.9062Z" fill="white"/>
</g>
<defs>
<clipPath id="clip0_418_546">
<rect width="35" height="35" fill="white"/>
</clipPath>
</defs>
</svg>
