<svg width="35" height="35" viewBox="0 0 35 35" fill="none" xmlns="http://www.w3.org/2000/svg">
<path d="M32.8125 9.02344H31.1719V10.1172H32.8125C33.4141 10.1172 33.9062 10.6094 33.9062 11.2109V28.1641C33.9062 28.7656 33.4141 29.2578 32.8125 29.2578H2.1875C1.58594 29.2578 1.09375 28.7656 1.09375 28.1641V11.2109C1.09375 10.6094 1.58594 10.1172 2.1875 10.1172H4.375V9.02344H2.1875C0.984375 9.02344 0 10.0078 0 11.2109V28.1641C0 29.3672 0.984375 30.3516 2.1875 30.3516H13.6719V31.4453H9.02344C8.72266 31.4453 8.47656 31.6914 8.47656 31.9922C8.47656 32.293 8.72266 32.5391 9.02344 32.5391H25.9766C26.2773 32.5391 26.5234 32.293 26.5234 31.9922C26.5234 31.6914 26.2773 31.4453 25.9766 31.4453H21.3281V30.3516H32.8125C34.0156 30.3516 35 29.3672 35 28.1641V11.2109C35 10.0078 34.0156 9.02344 32.8125 9.02344ZM20.2344 31.4453H14.7656V30.3516H20.2344V31.4453ZM27.3438 5.74219H26.25C25.9492 5.74219 25.7031 5.98828 25.7031 6.28906C25.7031 6.58984 25.9492 6.83594 26.25 6.83594H27.3438C27.6445 6.83594 27.8906 6.58984 27.8906 6.28906C27.8906 5.98828 27.6445 5.74219 27.3438 5.74219ZM24.0625 5.74219H22.9688C22.668 5.74219 22.4219 5.98828 22.4219 6.28906C22.4219 6.58984 22.668 6.83594 22.9688 6.83594H24.0625C24.3633 6.83594 24.6094 6.58984 24.6094 6.28906C24.6094 5.98828 24.3633 5.74219 24.0625 5.74219Z" fill="white"/>
<path d="M14.2461 19.6602C14.4648 19.8789 14.793 19.8789 15.0117 19.6602L19.0586 15.6133L19.9063 16.2695C20.125 16.4336 20.4258 16.4336 20.6172 16.2422L25.5391 11.5938C25.7031 11.4297 25.7578 11.2109 25.6758 10.9922C25.5938 10.7734 25.4023 10.6367 25.1562 10.6367H22.9688C22.668 10.6367 22.4219 10.8828 22.4219 11.1836C22.4219 11.4844 22.668 11.7305 22.9688 11.7305H23.7891L20.207 15.1484L19.3594 14.4922C19.1406 14.3281 18.8398 14.3555 18.6484 14.5469L14.6289 18.5117L13.6445 17.5273C13.4258 17.3086 13.0977 17.3086 12.8789 17.5273L9.02344 21.3828V12.8516C9.02344 12.5508 8.77734 12.3047 8.47656 12.3047C8.17578 12.3047 7.92969 12.5508 7.92969 12.8516V22.6953C7.92969 22.7227 7.92969 22.7773 7.92969 22.8047C7.92969 22.832 7.92969 22.832 7.95703 22.8594C7.95703 22.8867 7.95703 22.8867 7.98438 22.9141C7.98438 22.9414 8.01172 22.9414 8.01172 22.9688C8.01172 22.9688 8.01172 22.9961 8.03906 22.9961C8.06641 23.0508 8.12109 23.1055 8.20312 23.1602C8.20312 23.1602 8.23047 23.1875 8.25781 23.1875C8.28516 23.1875 8.28516 23.2148 8.3125 23.2148C8.33984 23.2148 8.33984 23.2148 8.36719 23.2422C8.39453 23.2422 8.39453 23.2422 8.42187 23.2695C8.44922 23.2695 8.50391 23.2695 8.53125 23.2695H18.7852C18.7031 22.9961 18.6484 22.7227 18.6484 22.4492V22.1758H9.78906L13.2617 18.7031L14.2461 19.6602Z" fill="white"/>
<path d="M28.4375 3.55469H7.10938C6.20703 3.55469 5.46875 4.29297 5.46875 5.19531V26.5234C5.46875 27.4258 6.20703 28.1641 7.10938 28.1641H22.2852C21.957 28.0273 21.6562 27.8359 21.4102 27.5898L20.8906 27.0703H7.10938C6.80859 27.0703 6.5625 26.8242 6.5625 26.5234V9.02344H28.9844V14.793C29.0117 14.8203 29.0117 14.8203 29.0391 14.8477C29.1211 14.8477 29.1758 14.8477 29.2578 14.8477C29.5312 14.8477 29.8047 14.9023 30.0781 14.9844V5.19531C30.0781 4.29297 29.3398 3.55469 28.4375 3.55469ZM28.9844 7.92969H6.5625V5.19531C6.5625 4.89453 6.80859 4.64844 7.10938 4.64844H28.4375C28.7383 4.64844 28.9844 4.89453 28.9844 5.19531V7.92969Z" fill="white"/>
<path d="M31.4727 17.5273L30.3242 16.3789C30.0508 16.1055 29.668 15.9414 29.2578 15.9414C29.0117 15.9414 28.793 15.9961 28.5742 16.1055C28.5469 16.1055 28.5195 16.0781 28.4922 16.0781C28.3008 15.4766 27.7266 15.0391 27.0703 15.0391H25.4297C24.7734 15.0391 24.1992 15.4766 24.0078 16.0781C23.9805 16.0781 23.9531 16.1055 23.9258 16.1055C23.707 15.9961 23.4883 15.9414 23.2422 15.9414C22.832 15.9414 22.4766 16.1055 22.1758 16.3789L21.0273 17.5273C20.7539 17.8008 20.5898 18.1836 20.5898 18.5938C20.5898 18.8398 20.6445 19.0586 20.7539 19.2773C20.7539 19.3047 20.7266 19.332 20.7266 19.3594C20.125 19.5508 19.6875 20.125 19.6875 20.7812V22.4219C19.6875 23.0781 20.125 23.6523 20.7266 23.8437C20.7266 23.8711 20.7539 23.8984 20.7539 23.9258C20.6445 24.1445 20.5898 24.3633 20.5898 24.6094C20.5898 25.0195 20.7539 25.375 21.0273 25.6758L22.1758 26.8242C22.4492 27.0977 22.832 27.2617 23.2422 27.2617C23.4883 27.2617 23.707 27.207 23.9258 27.0977C23.9531 27.0977 23.9805 27.125 24.0078 27.125C24.1992 27.7266 24.7734 28.1641 25.4297 28.1641H27.0703C27.7266 28.1641 28.3008 27.7266 28.4922 27.125C28.5195 27.125 28.5469 27.0977 28.5742 27.0977C28.793 27.207 29.0117 27.2617 29.2578 27.2617C29.668 27.2617 30.0234 27.0977 30.3242 26.8242L31.4727 25.6758C31.7461 25.4023 31.9102 25.0195 31.9102 24.6094C31.9102 24.3633 31.8555 24.1445 31.7461 23.9258C31.7461 23.8984 31.7734 23.8711 31.7734 23.8437C32.375 23.6523 32.8125 23.0781 32.8125 22.4219V20.7812C32.8125 20.125 32.375 19.5508 31.7734 19.3594C31.7734 19.332 31.7461 19.3047 31.7461 19.2773C31.8555 19.0586 31.9102 18.8398 31.9102 18.5938C31.9102 18.1836 31.7461 17.8281 31.4727 17.5273ZM31.7188 22.4219C31.7188 22.6406 31.5273 22.832 31.3086 22.832H30.9531C30.8437 23.2695 30.6523 23.707 30.4336 24.0898L30.6797 24.3359C30.8437 24.5 30.8437 24.7461 30.6797 24.9102L29.5312 26.0586C29.4492 26.1406 29.3398 26.168 29.2578 26.168C29.1758 26.168 29.0391 26.1406 28.9844 26.0586L28.7383 25.8125C28.3555 26.0312 27.918 26.2227 27.4805 26.332V26.6875C27.4805 26.9062 27.2891 27.0977 27.0703 27.0977H25.4297C25.2109 27.0977 25.0195 26.9062 25.0195 26.6875V26.332C24.582 26.2227 24.1445 26.0312 23.7617 25.8125L23.5156 26.0312C23.4336 26.1133 23.3242 26.1406 23.2422 26.1406C23.1328 26.1406 23.0234 26.1133 22.9688 26.0312L21.8203 24.8828C21.6563 24.7188 21.6563 24.4727 21.8203 24.3086L22.0664 24.0625C21.8477 23.6797 21.6563 23.2422 21.5469 22.8047H21.1914C20.9727 22.8047 20.7812 22.6133 20.7812 22.3945V20.7812C20.7812 20.5625 20.9727 20.3711 21.1914 20.3711H21.5469C21.6563 19.9336 21.8477 19.4961 22.0664 19.1133L21.8203 18.8672C21.6563 18.7031 21.6563 18.457 21.8203 18.293L22.9688 17.1445C23.0508 17.0625 23.1602 17.0352 23.2422 17.0352C23.3516 17.0352 23.4609 17.0625 23.5156 17.1445L23.7617 17.3906C24.1445 17.1719 24.582 16.9805 25.0195 16.8711V16.5156C25.0195 16.2969 25.2109 16.1055 25.4297 16.1055H27.0703C27.2891 16.1055 27.4805 16.2969 27.4805 16.5156V16.8711C27.918 16.9805 28.3555 17.1719 28.7383 17.3906L28.9844 17.1445C29.0664 17.0625 29.1758 17.0352 29.2578 17.0352C29.3398 17.0352 29.4766 17.0625 29.5312 17.1445L30.6797 18.293C30.8437 18.457 30.8437 18.7031 30.6797 18.8672L30.4336 19.1133C30.6523 19.4961 30.8437 19.9336 30.9531 20.3711H31.3086C31.5273 20.3711 31.7188 20.5625 31.7188 20.7812V22.4219Z" fill="white"/>
<path d="M26.25 18.0469C24.2812 18.0469 22.6953 19.6328 22.6953 21.6016C22.6953 23.5703 24.2812 25.1562 26.25 25.1562C28.2188 25.1562 29.8047 23.5703 29.8047 21.6016C29.8047 19.6328 28.2188 18.0469 26.25 18.0469ZM26.25 24.0625C24.8828 24.0625 23.7891 22.9688 23.7891 21.6016C23.7891 20.2344 24.8828 19.1406 26.25 19.1406C27.6172 19.1406 28.7109 20.2344 28.7109 21.6016C28.7109 22.9688 27.6172 24.0625 26.25 24.0625Z" fill="white"/>
</svg>
