<svg width="1920" height="1397" viewBox="0 0 1920 1397" fill="none" xmlns="http://www.w3.org/2000/svg">
<g filter="url(#filter0_f_301_376)">
<ellipse cx="1633.5" cy="840.5" rx="433.5" ry="430.5" fill="#D2EDF5"/>
</g>
<g opacity="0.2" filter="url(#filter1_f_301_376)">
<path d="M1851.14 1194.88C1938.92 1161.58 2010.7 1078.32 1962.11 996.127C1971.33 981.887 1956.24 968.468 1938.37 956.93C1906 936.034 1924.29 958.53 1932.05 970.632C1939.91 982.904 1897.31 960.685 1891.21 957.72L1837.15 931.469C1757.47 892.777 1667.25 850.923 1612.09 792.366C1577.35 755.492 1539.62 729.49 1488.34 704.586C1457.14 689.438 1421.7 676.808 1387.8 667.746C1342.67 655.68 1322.65 658.12 1284.92 675.283C1258.82 687.153 1227.99 684.069 1199.29 690.935C1174.02 696.979 1151.13 702.874 1120.86 699.702C1069.59 694.328 1199.46 614.479 1166.78 587.684C1106.43 538.193 988.531 694.973 962.647 634.052C948.808 601.478 849.096 572.444 818.584 543.945C797.373 524.132 768.02 683.525 739.014 669.44C640.5 621.602 689.755 424.204 606.699 463.328C519.544 504.382 174.685 271.439 90.289 315.027C57.5961 331.911 39.5687 360.235 6.0436 374.052C-8.68102 380.12 22.8347 484.557 31.8946 497.742C46.9092 519.594 175.185 560.249 163.17 577.515C153.73 591.082 156.721 607.57 156.639 623.857C156.567 637.886 147.918 673.706 162.335 687.85C168.845 694.237 177.924 694.341 185.018 692.21C202.674 686.906 241.817 712.604 257.832 720.381C295.515 738.68 280.048 797.392 272.672 819.161C260.214 855.93 247.262 885.255 257.308 926.7C265.418 960.155 275.102 995.528 295.2 1028.16C313.934 1058.57 365.565 1091.55 399.712 1112.98C466.753 1155.06 536.534 1191.13 609.257 1226.45L880.756 1358.29C925.864 1380.19 971.83 1406.07 1022.6 1415.45C1100.16 1429.79 1185.35 1430.76 1260.86 1431.06C1362.7 1431.47 1455.52 1417.03 1545.33 1392.98C1570.57 1386.22 1585.86 1382.08 1597.05 1364.85C1607.17 1349.28 1596.28 1340.7 1589.4 1323.87C1579.44 1299.49 1582.75 1268.98 1579.52 1244.53C1575.68 1215.46 1584.44 1207.45 1620.28 1200.97C1689.95 1188.37 1789.18 1218.39 1851.14 1194.88Z" fill="#0500FF"/>
</g>
<g filter="url(#filter2_f_301_376)">
<ellipse cx="209.795" cy="1001.05" rx="409.795" ry="410.053" fill="#D2EDF5"/>
</g>
<defs>
<filter id="filter0_f_301_376" x="790" y="0" width="1687" height="1681" filterUnits="userSpaceOnUse" color-interpolation-filters="sRGB">
<feFlood flood-opacity="0" result="BackgroundImageFix"/>
<feBlend mode="normal" in="SourceGraphic" in2="BackgroundImageFix" result="shape"/>
<feGaussianBlur stdDeviation="205" result="effect1_foregroundBlur_301_376"/>
</filter>
<filter id="filter1_f_301_376" x="-197.816" y="109.566" width="2375.63" height="1521.51" filterUnits="userSpaceOnUse" color-interpolation-filters="sRGB">
<feFlood flood-opacity="0" result="BackgroundImageFix"/>
<feBlend mode="normal" in="SourceGraphic" in2="BackgroundImageFix" result="shape"/>
<feGaussianBlur stdDeviation="100" result="effect1_foregroundBlur_301_376"/>
</filter>
<filter id="filter2_f_301_376" x="-610" y="181" width="1639.59" height="1640.11" filterUnits="userSpaceOnUse" color-interpolation-filters="sRGB">
<feFlood flood-opacity="0" result="BackgroundImageFix"/>
<feBlend mode="normal" in="SourceGraphic" in2="BackgroundImageFix" result="shape"/>
<feGaussianBlur stdDeviation="205" result="effect1_foregroundBlur_301_376"/>
</filter>
</defs>
</svg>
