<svg width="70" height="21" viewBox="0 0 70 21" fill="none" xmlns="http://www.w3.org/2000/svg">
<path d="M13.972 16.528H6.636L5.46 20H0.448L7.56 0.343999H13.104L20.216 20H15.148L13.972 16.528ZM12.74 12.832L10.304 5.636L7.896 12.832H12.74ZM27.4205 20.224C26.5805 20.224 25.8899 19.9813 25.3485 19.496C24.8259 18.992 24.5645 18.376 24.5645 17.648C24.5645 16.9013 24.8259 16.276 25.3485 15.772C25.8899 15.268 26.5805 15.016 27.4205 15.016C28.2419 15.016 28.9139 15.268 29.4365 15.772C29.9779 16.276 30.2485 16.9013 30.2485 17.648C30.2485 18.376 29.9779 18.992 29.4365 19.496C28.9139 19.9813 28.2419 20.224 27.4205 20.224ZM58.1429 0.343999V20H53.3549V8.212L48.9589 20H45.0949L40.6709 8.184V20H35.8829V0.343999H41.5389L47.0549 13.952L52.5149 0.343999H58.1429ZM66.626 20.224C65.786 20.224 65.0953 19.9813 64.554 19.496C64.0313 18.992 63.77 18.376 63.77 17.648C63.77 16.9013 64.0313 16.276 64.554 15.772C65.0953 15.268 65.786 15.016 66.626 15.016C67.4473 15.016 68.1193 15.268 68.642 15.772C69.1833 16.276 69.454 16.9013 69.454 17.648C69.454 18.376 69.1833 18.992 68.642 19.496C68.1193 19.9813 67.4473 20.224 66.626 20.224Z" fill="white"/>
</svg>
