<svg width="1170" height="721" viewBox="0 0 1170 721" fill="none" xmlns="http://www.w3.org/2000/svg">
<g opacity="0.5">
<path d="M1166.95 566.718H3.05483C2.24464 566.718 1.46768 566.396 0.894783 565.823C0.321892 565.251 0 564.473 0 563.663C0 562.853 0.321892 562.076 0.894783 561.503C1.46768 560.93 2.24464 560.608 3.05483 560.608H1166.95C1167.76 560.608 1168.53 560.93 1169.11 561.503C1169.68 562.076 1170 562.853 1170 563.663C1170 564.473 1169.68 565.251 1169.11 565.823C1168.53 566.396 1167.76 566.718 1166.95 566.718Z" fill="#3F3D56"/>
<path d="M608.092 166.502C653.644 166.502 690.572 129.571 690.572 84.0149C690.572 38.4584 653.644 1.52759 608.092 1.52759C562.539 1.52759 525.611 38.4584 525.611 84.0149C525.611 129.571 562.539 166.502 608.092 166.502Z" fill="#2F2E41"/>
<path d="M529.723 613.54L527.539 576.152L670.707 549.924L673.933 605.111L529.723 613.54Z" fill="#FFB8B8"/>
<path d="M536.658 548.819L540.873 620.93L495.473 623.584L488.605 506.07C494.567 505.721 500.539 506.55 506.18 508.51C511.822 510.47 517.022 513.522 521.484 517.491C525.946 521.461 529.583 526.27 532.186 531.646C534.79 537.021 536.309 542.856 536.658 548.819Z" fill="#2F2E41"/>
<path d="M591.993 613.198L568.211 642.133L445.297 564.17L480.394 521.466L591.993 613.198Z" fill="#FFB8B8"/>
<path d="M542.959 656.006L588.821 600.203L623.954 629.082L549.215 720.021C544.601 716.228 540.779 711.564 537.968 706.295C535.157 701.025 533.411 695.254 532.83 689.309C532.249 683.365 532.845 677.364 534.582 671.65C536.32 665.936 539.166 660.62 542.959 656.006Z" fill="#2F2E41"/>
<path d="M523.558 478.64L507.307 555.258C506.933 557.022 506.954 558.847 507.368 560.602C507.783 562.357 508.58 563.999 509.704 565.409C510.828 566.82 512.25 567.964 513.868 568.76C515.486 569.556 517.26 569.984 519.063 570.013L678.824 572.59C680.625 572.619 682.41 572.249 684.052 571.508C685.693 570.766 687.15 569.671 688.319 568.3C689.488 566.93 690.339 565.318 690.812 563.58C691.285 561.842 691.368 560.021 691.055 558.247L677.08 479.052C676.581 476.223 675.101 473.66 672.901 471.814C670.7 469.968 667.919 468.955 665.047 468.955H535.511C532.711 468.955 529.995 469.917 527.819 471.68C525.643 473.443 524.139 475.9 523.558 478.64Z" fill="#2F2E41"/>
<path d="M550.051 505.617C550.051 505.617 394.254 407.854 363.706 459.79C348.432 485.758 356.069 510.963 367.524 529.675C378.155 546.713 393.416 560.373 411.522 569.059L537.831 630.875L583.654 581.994L553.105 554.498L550.051 505.617Z" fill="#2F2E41"/>
<path d="M629.475 490.341C629.475 490.341 831.094 432.294 791.381 542.277C751.668 652.26 601.981 609.489 601.981 609.489L586.707 563.663L638.639 527.002L629.475 490.341Z" fill="#2F2E41"/>
<path d="M609.125 177.886C650.563 177.886 684.155 144.292 684.155 102.85C684.155 61.4092 650.563 27.8145 609.125 27.8145C567.688 27.8145 534.096 61.4092 534.096 102.85C534.096 144.292 567.688 177.886 609.125 177.886Z" fill="#FFB8B8"/>
<path d="M613.056 502.466C581.879 501.994 550.862 497.907 520.626 490.287L519.733 490.043L477.864 297.435C474.098 280.51 476.659 262.792 485.063 247.626C493.468 232.46 507.135 220.897 523.482 215.121C573.978 197.002 629.014 195.903 680.193 211.991H680.194C697.367 217.526 711.822 229.332 720.675 245.054C729.528 260.777 732.128 279.26 727.956 296.815L681.192 489.882L680.533 490.195C661.099 499.402 636.797 502.466 613.056 502.466Z" fill="#CCCCCC"/>
<path d="M556.818 517.428C558.339 513.202 560.767 509.361 563.933 506.175C567.098 502.989 570.924 500.537 575.139 498.989C579.355 497.442 583.859 496.838 588.334 497.22C592.809 497.601 597.145 498.96 601.038 501.199L683.477 429.635L690.936 485.875L611.507 545.211C607.312 551.502 600.955 556.036 593.641 557.953C586.327 559.87 578.565 559.037 571.823 555.612C565.082 552.188 559.831 546.41 557.066 539.372C554.3 532.334 554.212 524.526 556.818 517.428Z" fill="#FFB8B8"/>
<path d="M635.441 533.038C634.1 533.036 632.766 532.841 631.481 532.456C629.395 531.849 627.485 530.751 625.911 529.254C624.336 527.757 623.143 525.904 622.432 523.851L612.481 495.658C611.55 493.052 611.431 490.225 612.142 487.551C612.852 484.876 614.357 482.48 616.459 480.68L728.782 413.242L684.505 215.697L685.631 215.425C686.089 215.312 731.454 204.986 750.044 254.563C763.062 289.284 811.237 364.781 807.838 415.799C807.192 426.004 803.126 435.693 796.297 443.303C789.467 450.912 780.272 455.997 770.196 457.738L643.763 530.182C641.381 532.029 638.455 533.033 635.441 533.038Z" fill="#CCCCCC"/>
<path d="M648.04 510.727C646.519 506.501 644.091 502.659 640.925 499.474C637.76 496.288 633.934 493.835 629.718 492.288C625.502 490.74 620.998 490.136 616.524 490.518C612.049 490.9 607.713 492.258 603.82 494.497L521.381 422.934L513.922 479.173L593.351 538.509C597.546 544.8 603.902 549.334 611.216 551.251C618.53 553.168 626.293 552.335 633.034 548.911C639.775 545.486 645.026 539.708 647.792 532.67C650.557 525.633 650.645 517.825 648.04 510.727Z" fill="#FFB8B8"/>
<path d="M577.686 533.038C574.673 533.033 571.747 532.029 569.365 530.182L433.767 463.848C423.692 462.108 414.497 457.022 407.667 449.413C400.837 441.803 396.771 432.114 396.125 421.909C392.727 370.891 450.066 289.284 463.084 254.563C481.673 204.986 527.039 215.309 527.497 215.425L528.624 215.697L475.182 419.352L596.669 480.68C598.77 482.48 600.276 484.876 600.986 487.55C601.697 490.225 601.578 493.052 600.647 495.658L590.696 523.851C589.985 525.904 588.792 527.757 587.217 529.254C585.643 530.751 583.733 531.849 581.647 532.456C580.362 532.84 579.028 533.036 577.686 533.038Z" fill="#CCCCCC"/>
<path d="M739.449 563.663H467.569C461.9 563.656 456.465 561.401 452.456 557.392C448.447 553.383 446.192 547.947 446.186 542.277V392.578C446.192 386.908 448.447 381.473 452.456 377.464C456.465 373.454 461.9 371.199 467.569 371.193H739.449C745.119 371.199 750.554 373.454 754.563 377.464C758.571 381.473 760.826 386.908 760.833 392.578V542.277C760.826 547.947 758.571 553.383 754.562 557.392C750.554 561.401 745.119 563.656 739.449 563.663Z" fill="#98D5AC"/>
<path d="M603.509 485.758C613.631 485.758 621.838 477.552 621.838 467.428C621.838 457.304 613.631 449.097 603.509 449.097C593.386 449.097 585.18 457.304 585.18 467.428C585.18 477.552 593.386 485.758 603.509 485.758Z" fill="white"/>
<path d="M533.345 99.7965C528.898 88.5162 536.194 75.0735 547.017 69.6092C557.84 64.1449 570.901 65.1842 582.478 68.7855C592.207 71.8119 601.326 76.5022 610.818 80.2067C620.175 84.3538 630.397 86.1744 640.611 85.5131C650.736 84.3696 660.812 78.6918 664.955 69.3823C669.249 59.7325 666.329 47.9566 659.716 39.7211C652.679 31.7595 643.573 25.906 633.408 22.8118C611.085 14.9467 585.3 14.7168 564.576 26.1495C543.852 37.5822 529.768 61.9252 534.051 85.2043" fill="#2F2E41"/>
<path d="M99.779 531.03C103.553 490.381 113.977 450.627 130.634 413.357C135.277 402.985 140.387 392.841 145.964 382.926C146.244 382.407 146.311 381.8 146.152 381.233C145.993 380.666 145.619 380.182 145.111 379.885C144.602 379.588 143.998 379.5 143.426 379.639C142.853 379.779 142.357 380.136 142.043 380.634C121.761 416.748 107.552 455.95 99.9847 496.673C97.8796 508.045 96.2973 519.497 95.2381 531.03C94.9689 533.939 99.5116 533.921 99.779 531.03Z" fill="#E6E6E6"/>
<path d="M156.961 390.209C172.844 390.209 185.72 377.332 185.72 361.447C185.72 345.563 172.844 332.685 156.961 332.685C141.077 332.685 128.201 345.563 128.201 361.447C128.201 377.332 141.077 390.209 156.961 390.209Z" fill="#98D5AC"/>
<path d="M102.721 531.794C105.169 505.423 111.932 479.633 122.738 455.454C125.75 448.725 129.065 442.144 132.683 435.712C132.865 435.375 132.908 434.982 132.805 434.614C132.702 434.246 132.46 433.932 132.13 433.739C131.8 433.547 131.408 433.489 131.036 433.58C130.665 433.671 130.344 433.902 130.139 434.225C116.982 457.654 107.764 483.086 102.854 509.505C101.489 516.883 100.462 524.312 99.775 531.794C99.6004 533.681 102.547 533.669 102.721 531.794H102.721Z" fill="#E6E6E6"/>
<path d="M139.818 440.437C150.122 440.437 158.475 432.083 158.475 421.778C158.475 411.473 150.122 403.119 139.818 403.119C129.513 403.119 121.16 411.473 121.16 421.778C121.16 432.083 129.513 440.437 139.818 440.437Z" fill="#98D5AC"/>
<path d="M99.0016 530.033C84.7137 507.734 74.1847 483.239 67.835 457.527C66.0715 450.369 64.6381 443.141 63.5349 435.844C63.4712 435.467 63.2636 435.129 62.9558 434.903C62.648 434.676 62.2642 434.577 61.8853 434.628C61.5064 434.679 61.1622 434.875 60.9252 435.175C60.6881 435.475 60.5767 435.855 60.6147 436.236C64.649 462.802 73.0219 488.525 85.3988 512.376C88.8593 519.033 92.6193 525.523 96.6788 531.845C97.7017 533.44 100.018 531.618 99.0016 530.033Z" fill="#E6E6E6"/>
<path d="M60.5911 439.127C70.8954 439.127 79.2487 430.773 79.2487 420.468C79.2487 410.163 70.8954 401.809 60.5911 401.809C50.2869 401.809 41.9336 410.163 41.9336 420.468C41.9336 430.773 50.2869 439.127 60.5911 439.127Z" fill="#98D5AC"/>
<path d="M41.7246 546.541V509.88C41.7287 506.235 43.1784 502.741 45.7555 500.164C48.3326 497.586 51.8267 496.137 55.4713 496.133H141.007C144.651 496.137 148.145 497.586 150.722 500.164C153.3 502.741 154.749 506.235 154.753 509.88V546.541C154.749 550.186 153.3 553.681 150.722 556.258C148.145 558.835 144.651 560.285 141.007 560.289H55.4713C51.8267 560.285 48.3326 558.835 45.7555 556.258C43.1784 553.681 41.7287 550.186 41.7246 546.541Z" fill="#F2F2F2"/>
<path d="M960.466 589.328C960.466 609.421 944.178 618.554 924.087 618.554C903.995 618.554 887.707 609.421 887.707 589.328C887.707 569.234 895.791 545.789 924.087 553.874C952.382 541.747 960.466 569.234 960.466 589.328Z" fill="#FF6584"/>
<path d="M922.315 563.287C920.9 563.289 919.533 562.776 918.47 561.843C917.407 560.91 916.72 559.621 916.538 558.218C915.333 548.194 908.694 528.559 905.896 520.584L905.895 520.581C905.612 519.789 905.525 518.939 905.642 518.106C905.76 517.272 906.077 516.48 906.568 515.796C907.037 515.185 907.631 514.68 908.309 514.314C908.987 513.949 909.735 513.731 910.504 513.675C911.273 513.62 912.044 513.728 912.768 513.992C913.492 514.256 914.152 514.671 914.704 515.208C915.197 515.725 915.579 516.338 915.825 517.009C916.071 517.68 916.176 518.394 916.135 519.108C915.586 529.344 923.047 545.884 927.544 554.835C927.969 555.678 928.182 556.613 928.165 557.557C928.149 558.501 927.903 559.428 927.449 560.256C926.996 561.084 926.347 561.79 925.56 562.312C924.773 562.835 923.871 563.158 922.932 563.254C922.727 563.277 922.521 563.288 922.315 563.287Z" fill="#3F3D56"/>
<path d="M949.234 540.706C961.863 530.369 951.955 509.215 936.149 513.276C934.023 513.784 932.062 514.83 930.456 516.313C920.76 525.473 919.258 548.908 919.258 548.908C919.258 548.908 936.379 551.228 949.234 540.706Z" fill="#3F3D56"/>
</g>
</svg>
